%TF.GenerationSoftware,KiCad,Pcbnew,9.0.0*%
%TF.CreationDate,2026-03-23T09:41:58+00:00*%
%TF.ProjectId,EntropyLoop-v1,456e7472-6f70-4794-9c6f-6f702d76312e,rev?*%
%TF.SameCoordinates,Original*%
%TF.FileFunction,Legend,Top*%
%TF.FilePolarity,Positive*%
%FSLAX46Y46*%
G04 Gerber Fmt 4.6, Leading zero omitted, Abs format (unit mm)*
G04 Created by KiCad (PCBNEW 9.0.0) date 2026-03-23 09:41:58*
%MOMM*%
%LPD*%
G01*
G04 APERTURE LIST*
%ADD10C,0.250000*%
%ADD11C,0.300000*%
%ADD12C,0.150000*%
%ADD13C,0.200000*%
%ADD14C,0.127000*%
%ADD15C,0.000000*%
%ADD16C,0.120000*%
G04 APERTURE END LIST*
D10*
X120778758Y-114403428D02*
X120278758Y-113689142D01*
X119921615Y-114403428D02*
X119921615Y-112903428D01*
X119921615Y-112903428D02*
X120493044Y-112903428D01*
X120493044Y-112903428D02*
X120635901Y-112974857D01*
X120635901Y-112974857D02*
X120707330Y-113046285D01*
X120707330Y-113046285D02*
X120778758Y-113189142D01*
X120778758Y-113189142D02*
X120778758Y-113403428D01*
X120778758Y-113403428D02*
X120707330Y-113546285D01*
X120707330Y-113546285D02*
X120635901Y-113617714D01*
X120635901Y-113617714D02*
X120493044Y-113689142D01*
X120493044Y-113689142D02*
X119921615Y-113689142D01*
X121278758Y-112903428D02*
X122278758Y-114403428D01*
X122278758Y-112903428D02*
X121278758Y-114403428D01*
X122307330Y-64288512D02*
X123164473Y-64288512D01*
X122735901Y-65788512D02*
X122735901Y-64288512D01*
X123521615Y-64288512D02*
X124521615Y-65788512D01*
X124521615Y-64288512D02*
X123521615Y-65788512D01*
D11*
G36*
X90203127Y-63655170D02*
G01*
X90203127Y-62578316D01*
X90210914Y-62513957D01*
X90230055Y-62477444D01*
X90260817Y-62454991D01*
X90301093Y-62447267D01*
X90341475Y-62454970D01*
X90372729Y-62477444D01*
X90392188Y-62514003D01*
X90400085Y-62578316D01*
X90400085Y-63655170D01*
X90392218Y-63718578D01*
X90372729Y-63755017D01*
X90341475Y-63777490D01*
X90301093Y-63785193D01*
X90261567Y-63777646D01*
X90230568Y-63755530D01*
X90211060Y-63719330D01*
X90203127Y-63655170D01*
G37*
G36*
X90203127Y-68354794D02*
G01*
X90203127Y-67277939D01*
X90210914Y-67213580D01*
X90230055Y-67177067D01*
X90260817Y-67154614D01*
X90301093Y-67146891D01*
X90341475Y-67154594D01*
X90372729Y-67177067D01*
X90392188Y-67213626D01*
X90400085Y-67277939D01*
X90400085Y-68354794D01*
X90392218Y-68418201D01*
X90372729Y-68454640D01*
X90341475Y-68477113D01*
X90301093Y-68484816D01*
X90261567Y-68477269D01*
X90230568Y-68455153D01*
X90211060Y-68418953D01*
X90203127Y-68354794D01*
G37*
G36*
X90203127Y-73054417D02*
G01*
X90203127Y-71977562D01*
X90210914Y-71913204D01*
X90230055Y-71876690D01*
X90260817Y-71854237D01*
X90301093Y-71846514D01*
X90341475Y-71854217D01*
X90372729Y-71876690D01*
X90392188Y-71913250D01*
X90400085Y-71977562D01*
X90400085Y-73054417D01*
X90392218Y-73117824D01*
X90372729Y-73154263D01*
X90341475Y-73176737D01*
X90301093Y-73184439D01*
X90261567Y-73176893D01*
X90230568Y-73154776D01*
X90211060Y-73118576D01*
X90203127Y-73054417D01*
G37*
G36*
X90203127Y-77754040D02*
G01*
X90203127Y-76677185D01*
X90210914Y-76612827D01*
X90230055Y-76576313D01*
X90260817Y-76553860D01*
X90301093Y-76546137D01*
X90341475Y-76553840D01*
X90372729Y-76576313D01*
X90392188Y-76612873D01*
X90400085Y-76677185D01*
X90400085Y-77754040D01*
X90392218Y-77817448D01*
X90372729Y-77853886D01*
X90341475Y-77876360D01*
X90301093Y-77884063D01*
X90261567Y-77876516D01*
X90230568Y-77854399D01*
X90211060Y-77818200D01*
X90203127Y-77754040D01*
G37*
G36*
X90203127Y-82453663D02*
G01*
X90203127Y-81376809D01*
X90210914Y-81312450D01*
X90230055Y-81275936D01*
X90260817Y-81253483D01*
X90301093Y-81245760D01*
X90341475Y-81253463D01*
X90372729Y-81275936D01*
X90392188Y-81312496D01*
X90400085Y-81376809D01*
X90400085Y-82453663D01*
X90392218Y-82517071D01*
X90372729Y-82553510D01*
X90341475Y-82575983D01*
X90301093Y-82583686D01*
X90261567Y-82576139D01*
X90230568Y-82554023D01*
X90211060Y-82517823D01*
X90203127Y-82453663D01*
G37*
G36*
X90203127Y-87153286D02*
G01*
X90203127Y-86076432D01*
X90210914Y-86012073D01*
X90230055Y-85975560D01*
X90260817Y-85953106D01*
X90301093Y-85945383D01*
X90341475Y-85953086D01*
X90372729Y-85975560D01*
X90392188Y-86012119D01*
X90400085Y-86076432D01*
X90400085Y-87153286D01*
X90392218Y-87216694D01*
X90372729Y-87253133D01*
X90341475Y-87275606D01*
X90301093Y-87283309D01*
X90261567Y-87275762D01*
X90230568Y-87253646D01*
X90211060Y-87217446D01*
X90203127Y-87153286D01*
G37*
G36*
X90203127Y-91852909D02*
G01*
X90203127Y-90776055D01*
X90210914Y-90711696D01*
X90230055Y-90675183D01*
X90260817Y-90652730D01*
X90301093Y-90645006D01*
X90341475Y-90652709D01*
X90372729Y-90675183D01*
X90392188Y-90711742D01*
X90400085Y-90776055D01*
X90400085Y-91852909D01*
X90392218Y-91916317D01*
X90372729Y-91952756D01*
X90341475Y-91975229D01*
X90301093Y-91982932D01*
X90261567Y-91975385D01*
X90230568Y-91953269D01*
X90211060Y-91917069D01*
X90203127Y-91852909D01*
G37*
G36*
X90203127Y-98902344D02*
G01*
X90203127Y-97825490D01*
X90210914Y-97761131D01*
X90230055Y-97724617D01*
X90260817Y-97702164D01*
X90301093Y-97694441D01*
X90341475Y-97702144D01*
X90372729Y-97724617D01*
X90392188Y-97761177D01*
X90400085Y-97825490D01*
X90400085Y-98902344D01*
X90392218Y-98965752D01*
X90372729Y-99002191D01*
X90341475Y-99024664D01*
X90301093Y-99032367D01*
X90261567Y-99024820D01*
X90230568Y-99002704D01*
X90211060Y-98966504D01*
X90203127Y-98902344D01*
G37*
G36*
X90203127Y-103601967D02*
G01*
X90203127Y-102525113D01*
X90210914Y-102460754D01*
X90230055Y-102424241D01*
X90260817Y-102401787D01*
X90301093Y-102394064D01*
X90341475Y-102401767D01*
X90372729Y-102424241D01*
X90392188Y-102460800D01*
X90400085Y-102525113D01*
X90400085Y-103601967D01*
X90392218Y-103665375D01*
X90372729Y-103701814D01*
X90341475Y-103724287D01*
X90301093Y-103731990D01*
X90261567Y-103724443D01*
X90230568Y-103702327D01*
X90211060Y-103666127D01*
X90203127Y-103601967D01*
G37*
G36*
X90203127Y-108301591D02*
G01*
X90203127Y-107224736D01*
X90210914Y-107160377D01*
X90230055Y-107123864D01*
X90260817Y-107101411D01*
X90301093Y-107093688D01*
X90341475Y-107101391D01*
X90372729Y-107123864D01*
X90392188Y-107160423D01*
X90400085Y-107224736D01*
X90400085Y-108301591D01*
X90392218Y-108364998D01*
X90372729Y-108401437D01*
X90341475Y-108423910D01*
X90301093Y-108431613D01*
X90261567Y-108424066D01*
X90230568Y-108401950D01*
X90211060Y-108365750D01*
X90203127Y-108301591D01*
G37*
G36*
X90203127Y-113001214D02*
G01*
X90203127Y-111924359D01*
X90210914Y-111860000D01*
X90230055Y-111823487D01*
X90260817Y-111801034D01*
X90301093Y-111793311D01*
X90341475Y-111801014D01*
X90372729Y-111823487D01*
X90392188Y-111860047D01*
X90400085Y-111924359D01*
X90400085Y-113001214D01*
X90392218Y-113064621D01*
X90372729Y-113101060D01*
X90341475Y-113123533D01*
X90301093Y-113131236D01*
X90261567Y-113123690D01*
X90230568Y-113101573D01*
X90211060Y-113065373D01*
X90203127Y-113001214D01*
G37*
G36*
X89657853Y-62341523D02*
G01*
X88304112Y-61713208D01*
X88258627Y-61688214D01*
X88237861Y-61670209D01*
X88222859Y-61643085D01*
X88217687Y-61609942D01*
X88224834Y-61572603D01*
X88246410Y-61540614D01*
X88277467Y-61518530D01*
X88311378Y-61511463D01*
X88339497Y-61516113D01*
X88386947Y-61534373D01*
X89740944Y-62164654D01*
X89785886Y-62189416D01*
X89806255Y-62206713D01*
X89821124Y-62234479D01*
X89826173Y-62266980D01*
X89819121Y-62304270D01*
X89797963Y-62335795D01*
X89767292Y-62357527D01*
X89733421Y-62364518D01*
X89705307Y-62359852D01*
X89657853Y-62341523D01*
G37*
G36*
X89740602Y-64063019D02*
G01*
X88391478Y-64692360D01*
X88342666Y-64708602D01*
X88309241Y-64714330D01*
X88277287Y-64707664D01*
X88248974Y-64687060D01*
X88229721Y-64656867D01*
X88223158Y-64619698D01*
X88227806Y-64585076D01*
X88240426Y-64560371D01*
X88262865Y-64539984D01*
X88307532Y-64514466D01*
X89656912Y-63886151D01*
X89705102Y-63866992D01*
X89732481Y-63862215D01*
X89766393Y-63869282D01*
X89797450Y-63891366D01*
X89819069Y-63923223D01*
X89826173Y-63959754D01*
X89821630Y-63992671D01*
X89809076Y-64017114D01*
X89786562Y-64037414D01*
X89740602Y-64063019D01*
G37*
G36*
X89657853Y-67041146D02*
G01*
X88304112Y-66412831D01*
X88258627Y-66387837D01*
X88237861Y-66369832D01*
X88222859Y-66342708D01*
X88217687Y-66309565D01*
X88224834Y-66272226D01*
X88246410Y-66240237D01*
X88277467Y-66218153D01*
X88311378Y-66211086D01*
X88339497Y-66215736D01*
X88386947Y-66233996D01*
X89740944Y-66864277D01*
X89785886Y-66889039D01*
X89806255Y-66906336D01*
X89821124Y-66934102D01*
X89826173Y-66966603D01*
X89819121Y-67003893D01*
X89797963Y-67035418D01*
X89767292Y-67057150D01*
X89733421Y-67064141D01*
X89705307Y-67059475D01*
X89657853Y-67041146D01*
G37*
G36*
X89740602Y-68762643D02*
G01*
X88391478Y-69391983D01*
X88342666Y-69408225D01*
X88309241Y-69413953D01*
X88277287Y-69407287D01*
X88248974Y-69386683D01*
X88229721Y-69356491D01*
X88223158Y-69319321D01*
X88227806Y-69284699D01*
X88240426Y-69259994D01*
X88262865Y-69239607D01*
X88307532Y-69214089D01*
X89656912Y-68585774D01*
X89705102Y-68566615D01*
X89732481Y-68561838D01*
X89766393Y-68568905D01*
X89797450Y-68590989D01*
X89819069Y-68622846D01*
X89826173Y-68659377D01*
X89821630Y-68692294D01*
X89809076Y-68716737D01*
X89786562Y-68737037D01*
X89740602Y-68762643D01*
G37*
G36*
X89657853Y-71740769D02*
G01*
X88304112Y-71112454D01*
X88258627Y-71087460D01*
X88237861Y-71069455D01*
X88222859Y-71042331D01*
X88217687Y-71009188D01*
X88224834Y-70971849D01*
X88246410Y-70939860D01*
X88277467Y-70917777D01*
X88311378Y-70910710D01*
X88339497Y-70915359D01*
X88386947Y-70933620D01*
X89740944Y-71563900D01*
X89785886Y-71588662D01*
X89806255Y-71605959D01*
X89821124Y-71633725D01*
X89826173Y-71666226D01*
X89819121Y-71703517D01*
X89797963Y-71735041D01*
X89767292Y-71756773D01*
X89733421Y-71763764D01*
X89705307Y-71759098D01*
X89657853Y-71740769D01*
G37*
G36*
X89740602Y-73462266D02*
G01*
X88391478Y-74091606D01*
X88342666Y-74107848D01*
X88309241Y-74113576D01*
X88277287Y-74106910D01*
X88248974Y-74086306D01*
X88229721Y-74056114D01*
X88223158Y-74018944D01*
X88227806Y-73984323D01*
X88240426Y-73959617D01*
X88262865Y-73939230D01*
X88307532Y-73913712D01*
X89656912Y-73285397D01*
X89705102Y-73266239D01*
X89732481Y-73261461D01*
X89766393Y-73268528D01*
X89797450Y-73290612D01*
X89819069Y-73322469D01*
X89826173Y-73359000D01*
X89821630Y-73391918D01*
X89809076Y-73416360D01*
X89786562Y-73436661D01*
X89740602Y-73462266D01*
G37*
G36*
X89657853Y-76440392D02*
G01*
X88304112Y-75812077D01*
X88258627Y-75787083D01*
X88237861Y-75769078D01*
X88222859Y-75741955D01*
X88217687Y-75708811D01*
X88224834Y-75671472D01*
X88246410Y-75639483D01*
X88277467Y-75617400D01*
X88311378Y-75610333D01*
X88339497Y-75614982D01*
X88386947Y-75633243D01*
X89740944Y-76263524D01*
X89785886Y-76288285D01*
X89806255Y-76305582D01*
X89821124Y-76333349D01*
X89826173Y-76365849D01*
X89819121Y-76403140D01*
X89797963Y-76434665D01*
X89767292Y-76456397D01*
X89733421Y-76463387D01*
X89705307Y-76458722D01*
X89657853Y-76440392D01*
G37*
G36*
X89740602Y-78161889D02*
G01*
X88391478Y-78791229D01*
X88342666Y-78807472D01*
X88309241Y-78813199D01*
X88277287Y-78806534D01*
X88248974Y-78785929D01*
X88229721Y-78755737D01*
X88223158Y-78718567D01*
X88227806Y-78683946D01*
X88240426Y-78659241D01*
X88262865Y-78638854D01*
X88307532Y-78613335D01*
X89656912Y-77985020D01*
X89705102Y-77965862D01*
X89732481Y-77961085D01*
X89766393Y-77968152D01*
X89797450Y-77990235D01*
X89819069Y-78022093D01*
X89826173Y-78058623D01*
X89821630Y-78091541D01*
X89809076Y-78115983D01*
X89786562Y-78136284D01*
X89740602Y-78161889D01*
G37*
G36*
X89657853Y-81140015D02*
G01*
X88304112Y-80511700D01*
X88258627Y-80486706D01*
X88237861Y-80468702D01*
X88222859Y-80441578D01*
X88217687Y-80408435D01*
X88224834Y-80371096D01*
X88246410Y-80339106D01*
X88277467Y-80317023D01*
X88311378Y-80309956D01*
X88339497Y-80314605D01*
X88386947Y-80332866D01*
X89740944Y-80963147D01*
X89785886Y-80987908D01*
X89806255Y-81005205D01*
X89821124Y-81032972D01*
X89826173Y-81065472D01*
X89819121Y-81102763D01*
X89797963Y-81134288D01*
X89767292Y-81156020D01*
X89733421Y-81163011D01*
X89705307Y-81158345D01*
X89657853Y-81140015D01*
G37*
G36*
X89740602Y-82861512D02*
G01*
X88391478Y-83490853D01*
X88342666Y-83507095D01*
X88309241Y-83512822D01*
X88277287Y-83506157D01*
X88248974Y-83485553D01*
X88229721Y-83455360D01*
X88223158Y-83418190D01*
X88227806Y-83383569D01*
X88240426Y-83358864D01*
X88262865Y-83338477D01*
X88307532Y-83312958D01*
X89656912Y-82684644D01*
X89705102Y-82665485D01*
X89732481Y-82660708D01*
X89766393Y-82667775D01*
X89797450Y-82689858D01*
X89819069Y-82721716D01*
X89826173Y-82758246D01*
X89821630Y-82791164D01*
X89809076Y-82815607D01*
X89786562Y-82835907D01*
X89740602Y-82861512D01*
G37*
G36*
X89657853Y-85839638D02*
G01*
X88304112Y-85211324D01*
X88258627Y-85186329D01*
X88237861Y-85168325D01*
X88222859Y-85141201D01*
X88217687Y-85108058D01*
X88224834Y-85070719D01*
X88246410Y-85038729D01*
X88277467Y-85016646D01*
X88311378Y-85009579D01*
X88339497Y-85014229D01*
X88386947Y-85032489D01*
X89740944Y-85662770D01*
X89785886Y-85687532D01*
X89806255Y-85704829D01*
X89821124Y-85732595D01*
X89826173Y-85765095D01*
X89819121Y-85802386D01*
X89797963Y-85833911D01*
X89767292Y-85855643D01*
X89733421Y-85862634D01*
X89705307Y-85857968D01*
X89657853Y-85839638D01*
G37*
G36*
X89740602Y-87561135D02*
G01*
X88391478Y-88190476D01*
X88342666Y-88206718D01*
X88309241Y-88212445D01*
X88277287Y-88205780D01*
X88248974Y-88185176D01*
X88229721Y-88154983D01*
X88223158Y-88117814D01*
X88227806Y-88083192D01*
X88240426Y-88058487D01*
X88262865Y-88038100D01*
X88307532Y-88012581D01*
X89656912Y-87384267D01*
X89705102Y-87365108D01*
X89732481Y-87360331D01*
X89766393Y-87367398D01*
X89797450Y-87389481D01*
X89819069Y-87421339D01*
X89826173Y-87457869D01*
X89821630Y-87490787D01*
X89809076Y-87515230D01*
X89786562Y-87535530D01*
X89740602Y-87561135D01*
G37*
G36*
X89657853Y-90539262D02*
G01*
X88304112Y-89910947D01*
X88258627Y-89885953D01*
X88237861Y-89867948D01*
X88222859Y-89840824D01*
X88217687Y-89807681D01*
X88224834Y-89770342D01*
X88246410Y-89738353D01*
X88277467Y-89716269D01*
X88311378Y-89709202D01*
X88339497Y-89713852D01*
X88386947Y-89732112D01*
X89740944Y-90362393D01*
X89785886Y-90387155D01*
X89806255Y-90404452D01*
X89821124Y-90432218D01*
X89826173Y-90464719D01*
X89819121Y-90502009D01*
X89797963Y-90533534D01*
X89767292Y-90555266D01*
X89733421Y-90562257D01*
X89705307Y-90557591D01*
X89657853Y-90539262D01*
G37*
G36*
X89740602Y-92260758D02*
G01*
X88391478Y-92890099D01*
X88342666Y-92906341D01*
X88309241Y-92912069D01*
X88277287Y-92905403D01*
X88248974Y-92884799D01*
X88229721Y-92854606D01*
X88223158Y-92817437D01*
X88227806Y-92782815D01*
X88240426Y-92758110D01*
X88262865Y-92737723D01*
X88307532Y-92712205D01*
X89656912Y-92083890D01*
X89705102Y-92064731D01*
X89732481Y-92059954D01*
X89766393Y-92067021D01*
X89797450Y-92089105D01*
X89819069Y-92120962D01*
X89826173Y-92157493D01*
X89821630Y-92190410D01*
X89809076Y-92214853D01*
X89786562Y-92235153D01*
X89740602Y-92260758D01*
G37*
G36*
X89657853Y-97588696D02*
G01*
X88304112Y-96960382D01*
X88258627Y-96935387D01*
X88237861Y-96917383D01*
X88222859Y-96890259D01*
X88217687Y-96857116D01*
X88224834Y-96819777D01*
X88246410Y-96787787D01*
X88277467Y-96765704D01*
X88311378Y-96758637D01*
X88339497Y-96763287D01*
X88386947Y-96781547D01*
X89740944Y-97411828D01*
X89785886Y-97436590D01*
X89806255Y-97453886D01*
X89821124Y-97481653D01*
X89826173Y-97514153D01*
X89819121Y-97551444D01*
X89797963Y-97582969D01*
X89767292Y-97604701D01*
X89733421Y-97611692D01*
X89705307Y-97607026D01*
X89657853Y-97588696D01*
G37*
G36*
X89740602Y-99310193D02*
G01*
X88391478Y-99939534D01*
X88342666Y-99955776D01*
X88309241Y-99961503D01*
X88277287Y-99954838D01*
X88248974Y-99934234D01*
X88229721Y-99904041D01*
X88223158Y-99866871D01*
X88227806Y-99832250D01*
X88240426Y-99807545D01*
X88262865Y-99787158D01*
X88307532Y-99761639D01*
X89656912Y-99133325D01*
X89705102Y-99114166D01*
X89732481Y-99109389D01*
X89766393Y-99116456D01*
X89797450Y-99138539D01*
X89819069Y-99170397D01*
X89826173Y-99206927D01*
X89821630Y-99239845D01*
X89809076Y-99264288D01*
X89786562Y-99284588D01*
X89740602Y-99310193D01*
G37*
G36*
X89657853Y-102288319D02*
G01*
X88304112Y-101660005D01*
X88258627Y-101635011D01*
X88237861Y-101617006D01*
X88222859Y-101589882D01*
X88217687Y-101556739D01*
X88224834Y-101519400D01*
X88246410Y-101487411D01*
X88277467Y-101465327D01*
X88311378Y-101458260D01*
X88339497Y-101462910D01*
X88386947Y-101481170D01*
X89740944Y-102111451D01*
X89785886Y-102136213D01*
X89806255Y-102153510D01*
X89821124Y-102181276D01*
X89826173Y-102213777D01*
X89819121Y-102251067D01*
X89797963Y-102282592D01*
X89767292Y-102304324D01*
X89733421Y-102311315D01*
X89705307Y-102306649D01*
X89657853Y-102288319D01*
G37*
G36*
X89740602Y-104009816D02*
G01*
X88391478Y-104639157D01*
X88342666Y-104655399D01*
X88309241Y-104661127D01*
X88277287Y-104654461D01*
X88248974Y-104633857D01*
X88229721Y-104603664D01*
X88223158Y-104566495D01*
X88227806Y-104531873D01*
X88240426Y-104507168D01*
X88262865Y-104486781D01*
X88307532Y-104461263D01*
X89656912Y-103832948D01*
X89705102Y-103813789D01*
X89732481Y-103809012D01*
X89766393Y-103816079D01*
X89797450Y-103838162D01*
X89819069Y-103870020D01*
X89826173Y-103906550D01*
X89821630Y-103939468D01*
X89809076Y-103963911D01*
X89786562Y-103984211D01*
X89740602Y-104009816D01*
G37*
G36*
X89657853Y-106987943D02*
G01*
X88304112Y-106359628D01*
X88258627Y-106334634D01*
X88237861Y-106316629D01*
X88222859Y-106289505D01*
X88217687Y-106256362D01*
X88224834Y-106219023D01*
X88246410Y-106187034D01*
X88277467Y-106164950D01*
X88311378Y-106157883D01*
X88339497Y-106162533D01*
X88386947Y-106180793D01*
X89740944Y-106811074D01*
X89785886Y-106835836D01*
X89806255Y-106853133D01*
X89821124Y-106880899D01*
X89826173Y-106913400D01*
X89819121Y-106950690D01*
X89797963Y-106982215D01*
X89767292Y-107003947D01*
X89733421Y-107010938D01*
X89705307Y-107006272D01*
X89657853Y-106987943D01*
G37*
G36*
X89740602Y-108709439D02*
G01*
X88391478Y-109338780D01*
X88342666Y-109355022D01*
X88309241Y-109360750D01*
X88277287Y-109354084D01*
X88248974Y-109333480D01*
X88229721Y-109303287D01*
X88223158Y-109266118D01*
X88227806Y-109231496D01*
X88240426Y-109206791D01*
X88262865Y-109186404D01*
X88307532Y-109160886D01*
X89656912Y-108532571D01*
X89705102Y-108513412D01*
X89732481Y-108508635D01*
X89766393Y-108515702D01*
X89797450Y-108537786D01*
X89819069Y-108569643D01*
X89826173Y-108606174D01*
X89821630Y-108639091D01*
X89809076Y-108663534D01*
X89786562Y-108683834D01*
X89740602Y-108709439D01*
G37*
G36*
X89657853Y-111687566D02*
G01*
X88304112Y-111059251D01*
X88258627Y-111034257D01*
X88237861Y-111016252D01*
X88222859Y-110989128D01*
X88217687Y-110955985D01*
X88224834Y-110918646D01*
X88246410Y-110886657D01*
X88277467Y-110864574D01*
X88311378Y-110857506D01*
X88339497Y-110862156D01*
X88386947Y-110880416D01*
X89740944Y-111510697D01*
X89785886Y-111535459D01*
X89806255Y-111552756D01*
X89821124Y-111580522D01*
X89826173Y-111613023D01*
X89819121Y-111650313D01*
X89797963Y-111681838D01*
X89767292Y-111703570D01*
X89733421Y-111710561D01*
X89705307Y-111705895D01*
X89657853Y-111687566D01*
G37*
G36*
X89740602Y-113409063D02*
G01*
X88391478Y-114038403D01*
X88342666Y-114054645D01*
X88309241Y-114060373D01*
X88277287Y-114053707D01*
X88248974Y-114033103D01*
X88229721Y-114002911D01*
X88223158Y-113965741D01*
X88227806Y-113931120D01*
X88240426Y-113906414D01*
X88262865Y-113886027D01*
X88307532Y-113860509D01*
X89656912Y-113232194D01*
X89705102Y-113213036D01*
X89732481Y-113208258D01*
X89766393Y-113215325D01*
X89797450Y-113237409D01*
X89819069Y-113269266D01*
X89826173Y-113305797D01*
X89821630Y-113338715D01*
X89809076Y-113363157D01*
X89786562Y-113383458D01*
X89740602Y-113409063D01*
G37*
G36*
X86566493Y-60692260D02*
G01*
X86677342Y-60698292D01*
X86790057Y-60716607D01*
X86905270Y-60747740D01*
X87033355Y-60797680D01*
X87186601Y-60874942D01*
X87285741Y-60935521D01*
X87322950Y-60966753D01*
X87342107Y-60998386D01*
X87348339Y-61032747D01*
X87341087Y-61071690D01*
X87319616Y-61103529D01*
X87287980Y-61125091D01*
X87250715Y-61132252D01*
X87222385Y-61127202D01*
X87184720Y-61109256D01*
X87069460Y-61044209D01*
X86963868Y-60994587D01*
X86866973Y-60958632D01*
X86767216Y-60932226D01*
X86667223Y-60916505D01*
X86566493Y-60911273D01*
X86465085Y-60916517D01*
X86364751Y-60932249D01*
X86264987Y-60958632D01*
X86168092Y-60994587D01*
X86062500Y-61044209D01*
X85947240Y-61109256D01*
X85910278Y-61127124D01*
X85881245Y-61132252D01*
X85843980Y-61125091D01*
X85812344Y-61103529D01*
X85790873Y-61071690D01*
X85783621Y-61032747D01*
X85789375Y-60999503D01*
X85806617Y-60970600D01*
X85852098Y-60932176D01*
X85956814Y-60869214D01*
X86120540Y-60788646D01*
X86236264Y-60744834D01*
X86349509Y-60715276D01*
X86459380Y-60697947D01*
X86566493Y-60692260D01*
G37*
G36*
X86571451Y-62911109D02*
G01*
X86286957Y-62911109D01*
X86286957Y-63411282D01*
X86390907Y-63411282D01*
X86455455Y-63419164D01*
X86492035Y-63438551D01*
X86514515Y-63469630D01*
X86522212Y-63509760D01*
X86514551Y-63549140D01*
X86492035Y-63580029D01*
X86455455Y-63599417D01*
X86390907Y-63607299D01*
X86090000Y-63607299D01*
X86090000Y-62684403D01*
X86097852Y-62620072D01*
X86117184Y-62583531D01*
X86148267Y-62561122D01*
X86188478Y-62553440D01*
X86228632Y-62561237D01*
X86259687Y-62584043D01*
X86279132Y-62620905D01*
X86286957Y-62684403D01*
X86286957Y-62715006D01*
X87052903Y-62715006D01*
X87052903Y-62684403D01*
X87060755Y-62620072D01*
X87080087Y-62583531D01*
X87111170Y-62561122D01*
X87151381Y-62553440D01*
X87191578Y-62561125D01*
X87222590Y-62583531D01*
X87241985Y-62620081D01*
X87249860Y-62684403D01*
X87248920Y-63564300D01*
X86948953Y-63564300D01*
X86884345Y-63556531D01*
X86847739Y-63537458D01*
X86825343Y-63506808D01*
X86817648Y-63466762D01*
X86825330Y-63426550D01*
X86847739Y-63395467D01*
X86884391Y-63376076D01*
X86948953Y-63368197D01*
X87052903Y-63368197D01*
X87052903Y-62911109D01*
X86768408Y-62911109D01*
X86768408Y-63083276D01*
X86832678Y-63087965D01*
X86858681Y-63097637D01*
X86881388Y-63120007D01*
X86894952Y-63147493D01*
X86899713Y-63181755D01*
X86892059Y-63221076D01*
X86869537Y-63252023D01*
X86832957Y-63271411D01*
X86768408Y-63279293D01*
X86571451Y-63279293D01*
X86507187Y-63274339D01*
X86480580Y-63263991D01*
X86458029Y-63241129D01*
X86444741Y-63214176D01*
X86440146Y-63181755D01*
X86444908Y-63147493D01*
X86458471Y-63120007D01*
X86481179Y-63097637D01*
X86507181Y-63087965D01*
X86571451Y-63083276D01*
X86571451Y-62911109D01*
G37*
G36*
X87138131Y-65561229D02*
G01*
X85971945Y-65561229D01*
X85852437Y-65556442D01*
X85826277Y-65544326D01*
X85803710Y-65522419D01*
X85788622Y-65494552D01*
X85783621Y-65463691D01*
X85788658Y-65431932D01*
X85803710Y-65403852D01*
X85826572Y-65382092D01*
X85854317Y-65369914D01*
X85971945Y-65365127D01*
X87138131Y-65365127D01*
X87257639Y-65369914D01*
X87283805Y-65382014D01*
X87306366Y-65403852D01*
X87321417Y-65431932D01*
X87326454Y-65463691D01*
X87321454Y-65494552D01*
X87306366Y-65522419D01*
X87283652Y-65544262D01*
X87256699Y-65556442D01*
X87138131Y-65561229D01*
G37*
G36*
X86879539Y-67566707D02*
G01*
X86286957Y-67566707D01*
X86286957Y-67637489D01*
X86279082Y-67701811D01*
X86259687Y-67738361D01*
X86228667Y-67760834D01*
X86188478Y-67768538D01*
X86148274Y-67760837D01*
X86117184Y-67738361D01*
X86097852Y-67701820D01*
X86090000Y-67637489D01*
X86090000Y-67380265D01*
X86097849Y-67315920D01*
X86117184Y-67279307D01*
X86148267Y-67256898D01*
X86188478Y-67249216D01*
X86228710Y-67256807D01*
X86259687Y-67278879D01*
X86279330Y-67314043D01*
X86286957Y-67370690D01*
X87052903Y-67370690D01*
X87052903Y-67340087D01*
X87060752Y-67275742D01*
X87080087Y-67239129D01*
X87111170Y-67216720D01*
X87151381Y-67209038D01*
X87191578Y-67216723D01*
X87222590Y-67239129D01*
X87241989Y-67275751D01*
X87249860Y-67340087D01*
X87249860Y-67566707D01*
X86463227Y-68067821D01*
X87052903Y-68067821D01*
X87052903Y-67997124D01*
X87060752Y-67932780D01*
X87080087Y-67896167D01*
X87111170Y-67873758D01*
X87151381Y-67866076D01*
X87191578Y-67873761D01*
X87222590Y-67896167D01*
X87241989Y-67932789D01*
X87249860Y-67997124D01*
X87249860Y-68254349D01*
X87241985Y-68318671D01*
X87222590Y-68355221D01*
X87191570Y-68377693D01*
X87151381Y-68385397D01*
X87111134Y-68377809D01*
X87080087Y-68355734D01*
X87060477Y-68320693D01*
X87052903Y-68264863D01*
X86090000Y-68264863D01*
X86090000Y-68070727D01*
X86879539Y-67566707D01*
G37*
G36*
X87138131Y-70260853D02*
G01*
X85971945Y-70260853D01*
X85852437Y-70256065D01*
X85826277Y-70243950D01*
X85803710Y-70222042D01*
X85788622Y-70194175D01*
X85783621Y-70163314D01*
X85788658Y-70131555D01*
X85803710Y-70103475D01*
X85826572Y-70081715D01*
X85854317Y-70069537D01*
X85971945Y-70064750D01*
X87138131Y-70064750D01*
X87257639Y-70069537D01*
X87283805Y-70081637D01*
X87306366Y-70103475D01*
X87321417Y-70131555D01*
X87326454Y-70163314D01*
X87321454Y-70194175D01*
X87306366Y-70222042D01*
X87283652Y-70243885D01*
X87256699Y-70256065D01*
X87138131Y-70260853D01*
G37*
G36*
X87052903Y-72606817D02*
G01*
X86286957Y-72606817D01*
X86286957Y-72738806D01*
X86279082Y-72803128D01*
X86259687Y-72839678D01*
X86228675Y-72862084D01*
X86188478Y-72869769D01*
X86148267Y-72862087D01*
X86117184Y-72839678D01*
X86097852Y-72803137D01*
X86090000Y-72738806D01*
X86090000Y-72279752D01*
X86097849Y-72215407D01*
X86117184Y-72178794D01*
X86148267Y-72156385D01*
X86188478Y-72148703D01*
X86228675Y-72156388D01*
X86259687Y-72178794D01*
X86279086Y-72215416D01*
X86286957Y-72279752D01*
X86286957Y-72410715D01*
X87052903Y-72410715D01*
X87052903Y-72198456D01*
X86866887Y-72198456D01*
X86802325Y-72190577D01*
X86765673Y-72171186D01*
X86743261Y-72140115D01*
X86735582Y-72099977D01*
X86743221Y-72060575D01*
X86765673Y-72029623D01*
X86802325Y-72010232D01*
X86866887Y-72002353D01*
X87249860Y-72002353D01*
X87249860Y-73018086D01*
X86866887Y-73018086D01*
X86802325Y-73010207D01*
X86765673Y-72990816D01*
X86743264Y-72959733D01*
X86735582Y-72919521D01*
X86743218Y-72880193D01*
X86765673Y-72849253D01*
X86802325Y-72829862D01*
X86866887Y-72821983D01*
X87052903Y-72821983D01*
X87052903Y-72606817D01*
G37*
G36*
X87138131Y-74960476D02*
G01*
X85971945Y-74960476D01*
X85852437Y-74955689D01*
X85826277Y-74943573D01*
X85803710Y-74921666D01*
X85788622Y-74893798D01*
X85783621Y-74862937D01*
X85788658Y-74831178D01*
X85803710Y-74803098D01*
X85826572Y-74781338D01*
X85854317Y-74769160D01*
X85971945Y-74764373D01*
X87138131Y-74764373D01*
X87257639Y-74769160D01*
X87283805Y-74781260D01*
X87306366Y-74803098D01*
X87321417Y-74831178D01*
X87326454Y-74862937D01*
X87321454Y-74893798D01*
X87306366Y-74921666D01*
X87283652Y-74943508D01*
X87256699Y-74955689D01*
X87138131Y-74960476D01*
G37*
G36*
X87191578Y-76658969D02*
G01*
X87222590Y-76681374D01*
X87241989Y-76717996D01*
X87249860Y-76782332D01*
X87249860Y-77226085D01*
X87242539Y-77330200D01*
X87222092Y-77416607D01*
X87190077Y-77488371D01*
X87147021Y-77547936D01*
X87091715Y-77598770D01*
X87032369Y-77633975D01*
X86967948Y-77655046D01*
X86896892Y-77662229D01*
X86837389Y-77656241D01*
X86782154Y-77638509D01*
X86730026Y-77608630D01*
X86684036Y-77569133D01*
X86639557Y-77516067D01*
X86596584Y-77446978D01*
X86537147Y-77508734D01*
X86457072Y-77579907D01*
X86286957Y-77698560D01*
X86281134Y-77766201D01*
X86268407Y-77797039D01*
X86229183Y-77830035D01*
X86188478Y-77840123D01*
X86148231Y-77832535D01*
X86117184Y-77810460D01*
X86097869Y-77774278D01*
X86090000Y-77710015D01*
X86090000Y-77598115D01*
X86282866Y-77463948D01*
X86411023Y-77356522D01*
X86490059Y-77271090D01*
X86533154Y-77203175D01*
X86533154Y-77162056D01*
X86730111Y-77162056D01*
X86736822Y-77244207D01*
X86755842Y-77314049D01*
X86794317Y-77394567D01*
X86828162Y-77435010D01*
X86867411Y-77458907D01*
X86903389Y-77466127D01*
X86937599Y-77460160D01*
X86971271Y-77441428D01*
X87005715Y-77406800D01*
X87030502Y-77364675D01*
X87046833Y-77308374D01*
X87052903Y-77233778D01*
X87052903Y-77009038D01*
X86730111Y-77009038D01*
X86730111Y-77162056D01*
X86533154Y-77162056D01*
X86533154Y-77009038D01*
X86286957Y-77009038D01*
X86286957Y-77079734D01*
X86279082Y-77144056D01*
X86259687Y-77180607D01*
X86228667Y-77203079D01*
X86188478Y-77210783D01*
X86148274Y-77203082D01*
X86117184Y-77180607D01*
X86097852Y-77144065D01*
X86090000Y-77079734D01*
X86090000Y-76782332D01*
X86097849Y-76717987D01*
X86117184Y-76681374D01*
X86148267Y-76658966D01*
X86188478Y-76651284D01*
X86228632Y-76659081D01*
X86259687Y-76681887D01*
X86279129Y-76718758D01*
X86286957Y-76782332D01*
X86286957Y-76812936D01*
X87052903Y-76812936D01*
X87052903Y-76782332D01*
X87060752Y-76717987D01*
X87080087Y-76681374D01*
X87111170Y-76658966D01*
X87151381Y-76651284D01*
X87191578Y-76658969D01*
G37*
G36*
X87138131Y-79660099D02*
G01*
X85971945Y-79660099D01*
X85852437Y-79655312D01*
X85826277Y-79643196D01*
X85803710Y-79621289D01*
X85788622Y-79593421D01*
X85783621Y-79562561D01*
X85788658Y-79530801D01*
X85803710Y-79502721D01*
X85826572Y-79480962D01*
X85854317Y-79468784D01*
X85971945Y-79463996D01*
X87138131Y-79463996D01*
X87257639Y-79468784D01*
X87283805Y-79480883D01*
X87306366Y-79502721D01*
X87321417Y-79530801D01*
X87326454Y-79562561D01*
X87321454Y-79593421D01*
X87306366Y-79621289D01*
X87283652Y-79643131D01*
X87256699Y-79655312D01*
X87138131Y-79660099D01*
G37*
G36*
X86779744Y-81370705D02*
G01*
X86881182Y-81394591D01*
X86972867Y-81433417D01*
X87056293Y-81487375D01*
X87132489Y-81557524D01*
X87197185Y-81640950D01*
X87241848Y-81726886D01*
X87268319Y-81816496D01*
X87277215Y-81911346D01*
X87270352Y-81995920D01*
X87250038Y-82075587D01*
X87216125Y-82151492D01*
X87167724Y-82224539D01*
X87103253Y-82295345D01*
X87030612Y-82354739D01*
X86951691Y-82400682D01*
X86865588Y-82433837D01*
X86771080Y-82454235D01*
X86666681Y-82461271D01*
X86562740Y-82454246D01*
X86468549Y-82433870D01*
X86382637Y-82400731D01*
X86303797Y-82354782D01*
X86231135Y-82295345D01*
X86166665Y-82224539D01*
X86118264Y-82151492D01*
X86084351Y-82075587D01*
X86064037Y-81995920D01*
X86057173Y-81911346D01*
X86254131Y-81911346D01*
X86261179Y-81977224D01*
X86282233Y-82039326D01*
X86318124Y-82098988D01*
X86370903Y-82157116D01*
X86432270Y-82203867D01*
X86501003Y-82237397D01*
X86578515Y-82258066D01*
X86666681Y-82265254D01*
X86754839Y-82258073D01*
X86832445Y-82237414D01*
X86901357Y-82203884D01*
X86962972Y-82157116D01*
X87016007Y-82098957D01*
X87052051Y-82039286D01*
X87073184Y-81977197D01*
X87080258Y-81911346D01*
X87073182Y-81846059D01*
X87052006Y-81784311D01*
X87015817Y-81724766D01*
X86962459Y-81666517D01*
X86900632Y-81619734D01*
X86831711Y-81586234D01*
X86754332Y-81565620D01*
X86666681Y-81558464D01*
X86579070Y-81565625D01*
X86501797Y-81586244D01*
X86433037Y-81619744D01*
X86371416Y-81666517D01*
X86318315Y-81724735D01*
X86282278Y-81784272D01*
X86261182Y-81846032D01*
X86254131Y-81911346D01*
X86057173Y-81911346D01*
X86066070Y-81816496D01*
X86092540Y-81726886D01*
X86137204Y-81640950D01*
X86201899Y-81557524D01*
X86277691Y-81487403D01*
X86360799Y-81433453D01*
X86452264Y-81394619D01*
X86553593Y-81370716D01*
X86666681Y-81362447D01*
X86779744Y-81370705D01*
G37*
G36*
X87138131Y-84359722D02*
G01*
X85971945Y-84359722D01*
X85852437Y-84354935D01*
X85826277Y-84342819D01*
X85803710Y-84320912D01*
X85788622Y-84293044D01*
X85783621Y-84262184D01*
X85788658Y-84230425D01*
X85803710Y-84202344D01*
X85826572Y-84180585D01*
X85854317Y-84168407D01*
X85971945Y-84163620D01*
X87138131Y-84163620D01*
X87257639Y-84168407D01*
X87283805Y-84180506D01*
X87306366Y-84202344D01*
X87321417Y-84230425D01*
X87326454Y-84262184D01*
X87321454Y-84293044D01*
X87306366Y-84320912D01*
X87283652Y-84342754D01*
X87256699Y-84354935D01*
X87138131Y-84359722D01*
G37*
G36*
X87191578Y-86147205D02*
G01*
X87222590Y-86169610D01*
X87241989Y-86206233D01*
X87249860Y-86270568D01*
X87249860Y-86721929D01*
X87242350Y-86820880D01*
X87221136Y-86904740D01*
X87187432Y-86976117D01*
X87141379Y-87037027D01*
X87083347Y-87088523D01*
X87020796Y-87124375D01*
X86952628Y-87145923D01*
X86877231Y-87153286D01*
X86793604Y-87143477D01*
X86714724Y-87114049D01*
X86660170Y-87076532D01*
X86601542Y-87015057D01*
X86551856Y-86943778D01*
X86517510Y-86873494D01*
X86497234Y-86795078D01*
X86489385Y-86682691D01*
X86489385Y-86678930D01*
X86686343Y-86678930D01*
X86693470Y-86762614D01*
X86713126Y-86829173D01*
X86743789Y-86882128D01*
X86786241Y-86925018D01*
X86831689Y-86949174D01*
X86881933Y-86957184D01*
X86924818Y-86950688D01*
X86964237Y-86931072D01*
X87001612Y-86896404D01*
X87028802Y-86853065D01*
X87046426Y-86796477D01*
X87052903Y-86722869D01*
X87052903Y-86497189D01*
X86686343Y-86497189D01*
X86686343Y-86678930D01*
X86489385Y-86678930D01*
X86489385Y-86497189D01*
X86286957Y-86497189D01*
X86286957Y-86695172D01*
X86279082Y-86759494D01*
X86259687Y-86796045D01*
X86228667Y-86818517D01*
X86188478Y-86826221D01*
X86148274Y-86818520D01*
X86117184Y-86796045D01*
X86097852Y-86759503D01*
X86090000Y-86695172D01*
X86090000Y-86270568D01*
X86097849Y-86206223D01*
X86117184Y-86169610D01*
X86148267Y-86147202D01*
X86188478Y-86139520D01*
X86228632Y-86147317D01*
X86259687Y-86170123D01*
X86279129Y-86206995D01*
X86286957Y-86270568D01*
X86286957Y-86301172D01*
X87052903Y-86301172D01*
X87052903Y-86270568D01*
X87060752Y-86206223D01*
X87080087Y-86169610D01*
X87111170Y-86147202D01*
X87151381Y-86139520D01*
X87191578Y-86147205D01*
G37*
G36*
X87138131Y-89059345D02*
G01*
X85971945Y-89059345D01*
X85852437Y-89054558D01*
X85826277Y-89042442D01*
X85803710Y-89020535D01*
X85788622Y-88992667D01*
X85783621Y-88961807D01*
X85788658Y-88930048D01*
X85803710Y-88901967D01*
X85826572Y-88880208D01*
X85854317Y-88868030D01*
X85971945Y-88863243D01*
X87138131Y-88863243D01*
X87257639Y-88868030D01*
X87283805Y-88880129D01*
X87306366Y-88901967D01*
X87321417Y-88930048D01*
X87326454Y-88961807D01*
X87321454Y-88992667D01*
X87306366Y-89020535D01*
X87283652Y-89042378D01*
X87256699Y-89054558D01*
X87138131Y-89059345D01*
G37*
G36*
X86576666Y-91409157D02*
G01*
X86286957Y-91409157D01*
X86286957Y-91541146D01*
X86279085Y-91605392D01*
X86259687Y-91641933D01*
X86228667Y-91664405D01*
X86188478Y-91672109D01*
X86148274Y-91664408D01*
X86117184Y-91641933D01*
X86097850Y-91605401D01*
X86090000Y-91541146D01*
X86090000Y-91081065D01*
X86097819Y-91017626D01*
X86117184Y-90981133D01*
X86148267Y-90958725D01*
X86188478Y-90951043D01*
X86228675Y-90958728D01*
X86259687Y-90981133D01*
X86279115Y-91017635D01*
X86286957Y-91081065D01*
X86286957Y-91213054D01*
X86576666Y-91213054D01*
X87052903Y-90888895D01*
X87060580Y-90829600D01*
X87080087Y-90793665D01*
X87111170Y-90771256D01*
X87151381Y-90763574D01*
X87191578Y-90771259D01*
X87222590Y-90793665D01*
X87241989Y-90830287D01*
X87249860Y-90894623D01*
X87249860Y-91072517D01*
X87242051Y-91136867D01*
X87222847Y-91173389D01*
X87191915Y-91195770D01*
X87151381Y-91203480D01*
X87112277Y-91195414D01*
X87080028Y-91171077D01*
X87052903Y-91126031D01*
X86779436Y-91311618D01*
X87052903Y-91493274D01*
X87060215Y-91455341D01*
X87080087Y-91432067D01*
X87110189Y-91418828D01*
X87151381Y-91413944D01*
X87191578Y-91421629D01*
X87222590Y-91444035D01*
X87241985Y-91480585D01*
X87249860Y-91544907D01*
X87249860Y-91729469D01*
X87241985Y-91793791D01*
X87222590Y-91830341D01*
X87191570Y-91852814D01*
X87151381Y-91860518D01*
X87111213Y-91852723D01*
X87080087Y-91829914D01*
X87060678Y-91793173D01*
X87052903Y-91730495D01*
X86576666Y-91409157D01*
G37*
G36*
X86566493Y-93743667D02*
G01*
X86455579Y-93737644D01*
X86342524Y-93719338D01*
X86226690Y-93688187D01*
X86098738Y-93638210D01*
X85946299Y-93560985D01*
X85847143Y-93500464D01*
X85809523Y-93469174D01*
X85789964Y-93437505D01*
X85783621Y-93403180D01*
X85790870Y-93364223D01*
X85812344Y-93332313D01*
X85843973Y-93310817D01*
X85881245Y-93303675D01*
X85910278Y-93308803D01*
X85947240Y-93326671D01*
X86062500Y-93391718D01*
X86168092Y-93441340D01*
X86264987Y-93477295D01*
X86364751Y-93503678D01*
X86465085Y-93519410D01*
X86566493Y-93524654D01*
X86667223Y-93519422D01*
X86767216Y-93503701D01*
X86866973Y-93477295D01*
X86963868Y-93441340D01*
X87069460Y-93391718D01*
X87184720Y-93326671D01*
X87222385Y-93308726D01*
X87250715Y-93303675D01*
X87287987Y-93310817D01*
X87319616Y-93332313D01*
X87341090Y-93364223D01*
X87348339Y-93403180D01*
X87342585Y-93436424D01*
X87325343Y-93465327D01*
X87280563Y-93503613D01*
X87175146Y-93566713D01*
X87011569Y-93647333D01*
X86896636Y-93691093D01*
X86782766Y-93720696D01*
X86672934Y-93738003D01*
X86566493Y-93743667D01*
G37*
G36*
X86566493Y-95939434D02*
G01*
X86677342Y-95945465D01*
X86790057Y-95963781D01*
X86905270Y-95994914D01*
X87033355Y-96044853D01*
X87186601Y-96122116D01*
X87285741Y-96182695D01*
X87322950Y-96213927D01*
X87342107Y-96245559D01*
X87348339Y-96279921D01*
X87341087Y-96318863D01*
X87319616Y-96350703D01*
X87287980Y-96372265D01*
X87250715Y-96379426D01*
X87222385Y-96374375D01*
X87184720Y-96356430D01*
X87069460Y-96291383D01*
X86963868Y-96241760D01*
X86866973Y-96205806D01*
X86767216Y-96179400D01*
X86667223Y-96163679D01*
X86566493Y-96158447D01*
X86465085Y-96163690D01*
X86364751Y-96179423D01*
X86264987Y-96205806D01*
X86168092Y-96241760D01*
X86062500Y-96291383D01*
X85947240Y-96356430D01*
X85910278Y-96374298D01*
X85881245Y-96379426D01*
X85843980Y-96372265D01*
X85812344Y-96350703D01*
X85790873Y-96318863D01*
X85783621Y-96279921D01*
X85789375Y-96246676D01*
X85806617Y-96217773D01*
X85852098Y-96179350D01*
X85956814Y-96116388D01*
X86120540Y-96035820D01*
X86236264Y-95992008D01*
X86349509Y-95962450D01*
X86459380Y-95945121D01*
X86566493Y-95939434D01*
G37*
G36*
X87052903Y-98277791D02*
G01*
X86286957Y-98277791D01*
X86286957Y-98700514D01*
X86472972Y-98700514D01*
X86537521Y-98708396D01*
X86574101Y-98727784D01*
X86596580Y-98758862D01*
X86604277Y-98798993D01*
X86596619Y-98838388D01*
X86574101Y-98869347D01*
X86537521Y-98888735D01*
X86472972Y-98896617D01*
X86090000Y-98896617D01*
X86090000Y-97967908D01*
X86097846Y-97903638D01*
X86117184Y-97867035D01*
X86148267Y-97844627D01*
X86188478Y-97836945D01*
X86228675Y-97844630D01*
X86259687Y-97867035D01*
X86279088Y-97903648D01*
X86286957Y-97967908D01*
X86286957Y-98081774D01*
X87052903Y-98081774D01*
X87052903Y-97967908D01*
X87060749Y-97903638D01*
X87080087Y-97867035D01*
X87111170Y-97844627D01*
X87151381Y-97836945D01*
X87191578Y-97844630D01*
X87222590Y-97867035D01*
X87241991Y-97903648D01*
X87249860Y-97967908D01*
X87249860Y-98392597D01*
X87241985Y-98456919D01*
X87222590Y-98493469D01*
X87191578Y-98515875D01*
X87151381Y-98523560D01*
X87111170Y-98515878D01*
X87080087Y-98493469D01*
X87060755Y-98456928D01*
X87052903Y-98392597D01*
X87052903Y-98277791D01*
G37*
G36*
X87138131Y-100808403D02*
G01*
X85971945Y-100808403D01*
X85852437Y-100803616D01*
X85826277Y-100791500D01*
X85803710Y-100769593D01*
X85788622Y-100741725D01*
X85783621Y-100710865D01*
X85788658Y-100679106D01*
X85803710Y-100651025D01*
X85826572Y-100629266D01*
X85854317Y-100617088D01*
X85971945Y-100612301D01*
X87138131Y-100612301D01*
X87257639Y-100617088D01*
X87283805Y-100629187D01*
X87306366Y-100651025D01*
X87321417Y-100679106D01*
X87326454Y-100710865D01*
X87321454Y-100741725D01*
X87306366Y-100769593D01*
X87283652Y-100791436D01*
X87256699Y-100803616D01*
X87138131Y-100808403D01*
G37*
G36*
X86779744Y-102519009D02*
G01*
X86881182Y-102542895D01*
X86972867Y-102581721D01*
X87056293Y-102635679D01*
X87132489Y-102705828D01*
X87197185Y-102789254D01*
X87241848Y-102875191D01*
X87268319Y-102964800D01*
X87277215Y-103059651D01*
X87270352Y-103144224D01*
X87250038Y-103223892D01*
X87216125Y-103299797D01*
X87167724Y-103372844D01*
X87103253Y-103443649D01*
X87030612Y-103503043D01*
X86951691Y-103548987D01*
X86865588Y-103582142D01*
X86771080Y-103602539D01*
X86666681Y-103609576D01*
X86562740Y-103602550D01*
X86468549Y-103582174D01*
X86382637Y-103549035D01*
X86303797Y-103503086D01*
X86231135Y-103443649D01*
X86166665Y-103372844D01*
X86118264Y-103299797D01*
X86084351Y-103223892D01*
X86064037Y-103144224D01*
X86057173Y-103059651D01*
X86254131Y-103059651D01*
X86261179Y-103125528D01*
X86282233Y-103187630D01*
X86318124Y-103247292D01*
X86370903Y-103305420D01*
X86432270Y-103352172D01*
X86501003Y-103385701D01*
X86578515Y-103406370D01*
X86666681Y-103413558D01*
X86754839Y-103406378D01*
X86832445Y-103385718D01*
X86901357Y-103352188D01*
X86962972Y-103305420D01*
X87016007Y-103247261D01*
X87052051Y-103187591D01*
X87073184Y-103125501D01*
X87080258Y-103059651D01*
X87073182Y-102994363D01*
X87052006Y-102932616D01*
X87015817Y-102873070D01*
X86962459Y-102814822D01*
X86900632Y-102768038D01*
X86831711Y-102734538D01*
X86754332Y-102713924D01*
X86666681Y-102706769D01*
X86579070Y-102713929D01*
X86501797Y-102734549D01*
X86433037Y-102768049D01*
X86371416Y-102814822D01*
X86318315Y-102873039D01*
X86282278Y-102932576D01*
X86261182Y-102994337D01*
X86254131Y-103059651D01*
X86057173Y-103059651D01*
X86066070Y-102964800D01*
X86092540Y-102875191D01*
X86137204Y-102789254D01*
X86201899Y-102705828D01*
X86277691Y-102635707D01*
X86360799Y-102581758D01*
X86452264Y-102542923D01*
X86553593Y-102519020D01*
X86666681Y-102510751D01*
X86779744Y-102519009D01*
G37*
G36*
X87138131Y-105508026D02*
G01*
X85971945Y-105508026D01*
X85852437Y-105503239D01*
X85826277Y-105491123D01*
X85803710Y-105469216D01*
X85788622Y-105441348D01*
X85783621Y-105410488D01*
X85788658Y-105378729D01*
X85803710Y-105350648D01*
X85826572Y-105328889D01*
X85854317Y-105316711D01*
X85971945Y-105311924D01*
X87138131Y-105311924D01*
X87257639Y-105316711D01*
X87283805Y-105328810D01*
X87306366Y-105350648D01*
X87321417Y-105378729D01*
X87326454Y-105410488D01*
X87321454Y-105441348D01*
X87306366Y-105469216D01*
X87283652Y-105491059D01*
X87256699Y-105503239D01*
X87138131Y-105508026D01*
G37*
G36*
X86779744Y-107218632D02*
G01*
X86881182Y-107242518D01*
X86972867Y-107281344D01*
X87056293Y-107335302D01*
X87132489Y-107405451D01*
X87197185Y-107488878D01*
X87241848Y-107574814D01*
X87268319Y-107664424D01*
X87277215Y-107759274D01*
X87270352Y-107843848D01*
X87250038Y-107923515D01*
X87216125Y-107999420D01*
X87167724Y-108072467D01*
X87103253Y-108143272D01*
X87030612Y-108202667D01*
X86951691Y-108248610D01*
X86865588Y-108281765D01*
X86771080Y-108302162D01*
X86666681Y-108309199D01*
X86562740Y-108302173D01*
X86468549Y-108281797D01*
X86382637Y-108248658D01*
X86303797Y-108202709D01*
X86231135Y-108143272D01*
X86166665Y-108072467D01*
X86118264Y-107999420D01*
X86084351Y-107923515D01*
X86064037Y-107843848D01*
X86057173Y-107759274D01*
X86254131Y-107759274D01*
X86261179Y-107825151D01*
X86282233Y-107887253D01*
X86318124Y-107946915D01*
X86370903Y-108005043D01*
X86432270Y-108051795D01*
X86501003Y-108085324D01*
X86578515Y-108105993D01*
X86666681Y-108113182D01*
X86754839Y-108106001D01*
X86832445Y-108085341D01*
X86901357Y-108051811D01*
X86962972Y-108005043D01*
X87016007Y-107946884D01*
X87052051Y-107887214D01*
X87073184Y-107825125D01*
X87080258Y-107759274D01*
X87073182Y-107693987D01*
X87052006Y-107632239D01*
X87015817Y-107572693D01*
X86962459Y-107514445D01*
X86900632Y-107467662D01*
X86831711Y-107434161D01*
X86754332Y-107413548D01*
X86666681Y-107406392D01*
X86579070Y-107413552D01*
X86501797Y-107434172D01*
X86433037Y-107467672D01*
X86371416Y-107514445D01*
X86318315Y-107572662D01*
X86282278Y-107632199D01*
X86261182Y-107693960D01*
X86254131Y-107759274D01*
X86057173Y-107759274D01*
X86066070Y-107664424D01*
X86092540Y-107574814D01*
X86137204Y-107488878D01*
X86201899Y-107405451D01*
X86277691Y-107335330D01*
X86360799Y-107281381D01*
X86452264Y-107242546D01*
X86553593Y-107218643D01*
X86666681Y-107210375D01*
X86779744Y-107218632D01*
G37*
G36*
X87138131Y-110207650D02*
G01*
X85971945Y-110207650D01*
X85852437Y-110202862D01*
X85826277Y-110190747D01*
X85803710Y-110168839D01*
X85788622Y-110140972D01*
X85783621Y-110110111D01*
X85788658Y-110078352D01*
X85803710Y-110050272D01*
X85826572Y-110028512D01*
X85854317Y-110016334D01*
X85971945Y-110011547D01*
X87138131Y-110011547D01*
X87257639Y-110016334D01*
X87283805Y-110028434D01*
X87306366Y-110050272D01*
X87321417Y-110078352D01*
X87326454Y-110110111D01*
X87321454Y-110140972D01*
X87306366Y-110168839D01*
X87283652Y-110190682D01*
X87256699Y-110202862D01*
X87138131Y-110207650D01*
G37*
G36*
X87191578Y-111995132D02*
G01*
X87222590Y-112017538D01*
X87241989Y-112054160D01*
X87249860Y-112118496D01*
X87249860Y-112569856D01*
X87242350Y-112668807D01*
X87221136Y-112752667D01*
X87187432Y-112824044D01*
X87141379Y-112884954D01*
X87083347Y-112936450D01*
X87020796Y-112972302D01*
X86952628Y-112993850D01*
X86877231Y-113001214D01*
X86793604Y-112991404D01*
X86714724Y-112961976D01*
X86660170Y-112924459D01*
X86601542Y-112862984D01*
X86551856Y-112791706D01*
X86517510Y-112721421D01*
X86497234Y-112643005D01*
X86489385Y-112530619D01*
X86489385Y-112526857D01*
X86686343Y-112526857D01*
X86693470Y-112610542D01*
X86713126Y-112677101D01*
X86743789Y-112730055D01*
X86786241Y-112772946D01*
X86831689Y-112797101D01*
X86881933Y-112805111D01*
X86924818Y-112798616D01*
X86964237Y-112779000D01*
X87001612Y-112744331D01*
X87028802Y-112700992D01*
X87046426Y-112644404D01*
X87052903Y-112570797D01*
X87052903Y-112345116D01*
X86686343Y-112345116D01*
X86686343Y-112526857D01*
X86489385Y-112526857D01*
X86489385Y-112345116D01*
X86286957Y-112345116D01*
X86286957Y-112543100D01*
X86279082Y-112607422D01*
X86259687Y-112643972D01*
X86228667Y-112666444D01*
X86188478Y-112674148D01*
X86148274Y-112666447D01*
X86117184Y-112643972D01*
X86097852Y-112607431D01*
X86090000Y-112543100D01*
X86090000Y-112118496D01*
X86097849Y-112054151D01*
X86117184Y-112017538D01*
X86148267Y-111995129D01*
X86188478Y-111987447D01*
X86228632Y-111995244D01*
X86259687Y-112018051D01*
X86279129Y-112054922D01*
X86286957Y-112118496D01*
X86286957Y-112149099D01*
X87052903Y-112149099D01*
X87052903Y-112118496D01*
X87060752Y-112054151D01*
X87080087Y-112017538D01*
X87111170Y-111995129D01*
X87151381Y-111987447D01*
X87191578Y-111995132D01*
G37*
G36*
X86566493Y-114891971D02*
G01*
X86455579Y-114885949D01*
X86342524Y-114867642D01*
X86226690Y-114836491D01*
X86098738Y-114786514D01*
X85946299Y-114709289D01*
X85847143Y-114648768D01*
X85809523Y-114617479D01*
X85789964Y-114585809D01*
X85783621Y-114551484D01*
X85790870Y-114512527D01*
X85812344Y-114480617D01*
X85843973Y-114459122D01*
X85881245Y-114451980D01*
X85910278Y-114457107D01*
X85947240Y-114474975D01*
X86062500Y-114540022D01*
X86168092Y-114589645D01*
X86264987Y-114625600D01*
X86364751Y-114651982D01*
X86465085Y-114667715D01*
X86566493Y-114672958D01*
X86667223Y-114667726D01*
X86767216Y-114652005D01*
X86866973Y-114625600D01*
X86963868Y-114589645D01*
X87069460Y-114540022D01*
X87184720Y-114474975D01*
X87222385Y-114457030D01*
X87250715Y-114451980D01*
X87287987Y-114459122D01*
X87319616Y-114480617D01*
X87341090Y-114512527D01*
X87348339Y-114551484D01*
X87342585Y-114584729D01*
X87325343Y-114613632D01*
X87280563Y-114651918D01*
X87175146Y-114715017D01*
X87011569Y-114795637D01*
X86896636Y-114839398D01*
X86782766Y-114869000D01*
X86672934Y-114886307D01*
X86566493Y-114891971D01*
G37*
G36*
X85036602Y-61713208D02*
G01*
X83687478Y-62342548D01*
X83638666Y-62358790D01*
X83605241Y-62364518D01*
X83573287Y-62357852D01*
X83544974Y-62337248D01*
X83525721Y-62307056D01*
X83519158Y-62269886D01*
X83523806Y-62235265D01*
X83536426Y-62210560D01*
X83558865Y-62190172D01*
X83603532Y-62164654D01*
X84952912Y-61536339D01*
X85001102Y-61517181D01*
X85028481Y-61512404D01*
X85062393Y-61519471D01*
X85093450Y-61541554D01*
X85115069Y-61573412D01*
X85122173Y-61609942D01*
X85117630Y-61642860D01*
X85105076Y-61667302D01*
X85082562Y-61687603D01*
X85036602Y-61713208D01*
G37*
G36*
X83147127Y-63655170D02*
G01*
X83147127Y-62578316D01*
X83154914Y-62513957D01*
X83174055Y-62477444D01*
X83204817Y-62454991D01*
X83245093Y-62447267D01*
X83285475Y-62454970D01*
X83316729Y-62477444D01*
X83336188Y-62514003D01*
X83344085Y-62578316D01*
X83344085Y-63655170D01*
X83336218Y-63718578D01*
X83316729Y-63755017D01*
X83285475Y-63777490D01*
X83245093Y-63785193D01*
X83205567Y-63777646D01*
X83174568Y-63755530D01*
X83155060Y-63719330D01*
X83147127Y-63655170D01*
G37*
G36*
X84953853Y-64691334D02*
G01*
X83600112Y-64063019D01*
X83554627Y-64038025D01*
X83533861Y-64020020D01*
X83518859Y-63992897D01*
X83513687Y-63959754D01*
X83520834Y-63922415D01*
X83542410Y-63890425D01*
X83573467Y-63868342D01*
X83607378Y-63861275D01*
X83635497Y-63865924D01*
X83682947Y-63884185D01*
X85036944Y-64514466D01*
X85081886Y-64539227D01*
X85102255Y-64556524D01*
X85117124Y-64584291D01*
X85122173Y-64616791D01*
X85115121Y-64654082D01*
X85093963Y-64685607D01*
X85063292Y-64707339D01*
X85029421Y-64714330D01*
X85001307Y-64709664D01*
X84953853Y-64691334D01*
G37*
G36*
X85036602Y-66412831D02*
G01*
X83687478Y-67042172D01*
X83638666Y-67058414D01*
X83605241Y-67064141D01*
X83573287Y-67057476D01*
X83544974Y-67036871D01*
X83525721Y-67006679D01*
X83519158Y-66969509D01*
X83523806Y-66934888D01*
X83536426Y-66910183D01*
X83558865Y-66889796D01*
X83603532Y-66864277D01*
X84952912Y-66235963D01*
X85001102Y-66216804D01*
X85028481Y-66212027D01*
X85062393Y-66219094D01*
X85093450Y-66241177D01*
X85115069Y-66273035D01*
X85122173Y-66309565D01*
X85117630Y-66342483D01*
X85105076Y-66366926D01*
X85082562Y-66387226D01*
X85036602Y-66412831D01*
G37*
G36*
X83147127Y-68354794D02*
G01*
X83147127Y-67277939D01*
X83154914Y-67213580D01*
X83174055Y-67177067D01*
X83204817Y-67154614D01*
X83245093Y-67146891D01*
X83285475Y-67154594D01*
X83316729Y-67177067D01*
X83336188Y-67213626D01*
X83344085Y-67277939D01*
X83344085Y-68354794D01*
X83336218Y-68418201D01*
X83316729Y-68454640D01*
X83285475Y-68477113D01*
X83245093Y-68484816D01*
X83205567Y-68477269D01*
X83174568Y-68455153D01*
X83155060Y-68418953D01*
X83147127Y-68354794D01*
G37*
G36*
X84953853Y-69390957D02*
G01*
X83600112Y-68762643D01*
X83554627Y-68737648D01*
X83533861Y-68719644D01*
X83518859Y-68692520D01*
X83513687Y-68659377D01*
X83520834Y-68622038D01*
X83542410Y-68590048D01*
X83573467Y-68567965D01*
X83607378Y-68560898D01*
X83635497Y-68565548D01*
X83682947Y-68583808D01*
X85036944Y-69214089D01*
X85081886Y-69238851D01*
X85102255Y-69256147D01*
X85117124Y-69283914D01*
X85122173Y-69316414D01*
X85115121Y-69353705D01*
X85093963Y-69385230D01*
X85063292Y-69406962D01*
X85029421Y-69413953D01*
X85001307Y-69409287D01*
X84953853Y-69390957D01*
G37*
G36*
X85036602Y-71112454D02*
G01*
X83687478Y-71741795D01*
X83638666Y-71758037D01*
X83605241Y-71763764D01*
X83573287Y-71757099D01*
X83544974Y-71736495D01*
X83525721Y-71706302D01*
X83519158Y-71669132D01*
X83523806Y-71634511D01*
X83536426Y-71609806D01*
X83558865Y-71589419D01*
X83603532Y-71563900D01*
X84952912Y-70935586D01*
X85001102Y-70916427D01*
X85028481Y-70911650D01*
X85062393Y-70918717D01*
X85093450Y-70940800D01*
X85115069Y-70972658D01*
X85122173Y-71009188D01*
X85117630Y-71042106D01*
X85105076Y-71066549D01*
X85082562Y-71086849D01*
X85036602Y-71112454D01*
G37*
G36*
X83147127Y-73054417D02*
G01*
X83147127Y-71977562D01*
X83154914Y-71913204D01*
X83174055Y-71876690D01*
X83204817Y-71854237D01*
X83245093Y-71846514D01*
X83285475Y-71854217D01*
X83316729Y-71876690D01*
X83336188Y-71913250D01*
X83344085Y-71977562D01*
X83344085Y-73054417D01*
X83336218Y-73117824D01*
X83316729Y-73154263D01*
X83285475Y-73176737D01*
X83245093Y-73184439D01*
X83205567Y-73176893D01*
X83174568Y-73154776D01*
X83155060Y-73118576D01*
X83147127Y-73054417D01*
G37*
G36*
X84953853Y-74090580D02*
G01*
X83600112Y-73462266D01*
X83554627Y-73437272D01*
X83533861Y-73419267D01*
X83518859Y-73392143D01*
X83513687Y-73359000D01*
X83520834Y-73321661D01*
X83542410Y-73289672D01*
X83573467Y-73267588D01*
X83607378Y-73260521D01*
X83635497Y-73265171D01*
X83682947Y-73283431D01*
X85036944Y-73913712D01*
X85081886Y-73938474D01*
X85102255Y-73955771D01*
X85117124Y-73983537D01*
X85122173Y-74016038D01*
X85115121Y-74053328D01*
X85093963Y-74084853D01*
X85063292Y-74106585D01*
X85029421Y-74113576D01*
X85001307Y-74108910D01*
X84953853Y-74090580D01*
G37*
G36*
X85036602Y-75812077D02*
G01*
X83687478Y-76441418D01*
X83638666Y-76457660D01*
X83605241Y-76463387D01*
X83573287Y-76456722D01*
X83544974Y-76436118D01*
X83525721Y-76405925D01*
X83519158Y-76368756D01*
X83523806Y-76334134D01*
X83536426Y-76309429D01*
X83558865Y-76289042D01*
X83603532Y-76263524D01*
X84952912Y-75635209D01*
X85001102Y-75616050D01*
X85028481Y-75611273D01*
X85062393Y-75618340D01*
X85093450Y-75640423D01*
X85115069Y-75672281D01*
X85122173Y-75708811D01*
X85117630Y-75741729D01*
X85105076Y-75766172D01*
X85082562Y-75786472D01*
X85036602Y-75812077D01*
G37*
G36*
X83147127Y-77754040D02*
G01*
X83147127Y-76677185D01*
X83154914Y-76612827D01*
X83174055Y-76576313D01*
X83204817Y-76553860D01*
X83245093Y-76546137D01*
X83285475Y-76553840D01*
X83316729Y-76576313D01*
X83336188Y-76612873D01*
X83344085Y-76677185D01*
X83344085Y-77754040D01*
X83336218Y-77817448D01*
X83316729Y-77853886D01*
X83285475Y-77876360D01*
X83245093Y-77884063D01*
X83205567Y-77876516D01*
X83174568Y-77854399D01*
X83155060Y-77818200D01*
X83147127Y-77754040D01*
G37*
G36*
X84953853Y-78790204D02*
G01*
X83600112Y-78161889D01*
X83554627Y-78136895D01*
X83533861Y-78118890D01*
X83518859Y-78091766D01*
X83513687Y-78058623D01*
X83520834Y-78021284D01*
X83542410Y-77989295D01*
X83573467Y-77967211D01*
X83607378Y-77960144D01*
X83635497Y-77964794D01*
X83682947Y-77983054D01*
X85036944Y-78613335D01*
X85081886Y-78638097D01*
X85102255Y-78655394D01*
X85117124Y-78683160D01*
X85122173Y-78715661D01*
X85115121Y-78752951D01*
X85093963Y-78784476D01*
X85063292Y-78806208D01*
X85029421Y-78813199D01*
X85001307Y-78808533D01*
X84953853Y-78790204D01*
G37*
G36*
X85036602Y-80511700D02*
G01*
X83687478Y-81141041D01*
X83638666Y-81157283D01*
X83605241Y-81163011D01*
X83573287Y-81156345D01*
X83544974Y-81135741D01*
X83525721Y-81105548D01*
X83519158Y-81068379D01*
X83523806Y-81033757D01*
X83536426Y-81009052D01*
X83558865Y-80988665D01*
X83603532Y-80963147D01*
X84952912Y-80334832D01*
X85001102Y-80315673D01*
X85028481Y-80310896D01*
X85062393Y-80317963D01*
X85093450Y-80340047D01*
X85115069Y-80371904D01*
X85122173Y-80408435D01*
X85117630Y-80441352D01*
X85105076Y-80465795D01*
X85082562Y-80486095D01*
X85036602Y-80511700D01*
G37*
G36*
X83147127Y-82453663D02*
G01*
X83147127Y-81376809D01*
X83154914Y-81312450D01*
X83174055Y-81275936D01*
X83204817Y-81253483D01*
X83245093Y-81245760D01*
X83285475Y-81253463D01*
X83316729Y-81275936D01*
X83336188Y-81312496D01*
X83344085Y-81376809D01*
X83344085Y-82453663D01*
X83336218Y-82517071D01*
X83316729Y-82553510D01*
X83285475Y-82575983D01*
X83245093Y-82583686D01*
X83205567Y-82576139D01*
X83174568Y-82554023D01*
X83155060Y-82517823D01*
X83147127Y-82453663D01*
G37*
G36*
X84953853Y-83489827D02*
G01*
X83600112Y-82861512D01*
X83554627Y-82836518D01*
X83533861Y-82818513D01*
X83518859Y-82791389D01*
X83513687Y-82758246D01*
X83520834Y-82720907D01*
X83542410Y-82688918D01*
X83573467Y-82666834D01*
X83607378Y-82659767D01*
X83635497Y-82664417D01*
X83682947Y-82682677D01*
X85036944Y-83312958D01*
X85081886Y-83337720D01*
X85102255Y-83355017D01*
X85117124Y-83382783D01*
X85122173Y-83415284D01*
X85115121Y-83452574D01*
X85093963Y-83484099D01*
X85063292Y-83505831D01*
X85029421Y-83512822D01*
X85001307Y-83508156D01*
X84953853Y-83489827D01*
G37*
G36*
X85036602Y-85211324D02*
G01*
X83687478Y-85840664D01*
X83638666Y-85856906D01*
X83605241Y-85862634D01*
X83573287Y-85855968D01*
X83544974Y-85835364D01*
X83525721Y-85805172D01*
X83519158Y-85768002D01*
X83523806Y-85733381D01*
X83536426Y-85708675D01*
X83558865Y-85688288D01*
X83603532Y-85662770D01*
X84952912Y-85034455D01*
X85001102Y-85015297D01*
X85028481Y-85010519D01*
X85062393Y-85017586D01*
X85093450Y-85039670D01*
X85115069Y-85071527D01*
X85122173Y-85108058D01*
X85117630Y-85140976D01*
X85105076Y-85165418D01*
X85082562Y-85185719D01*
X85036602Y-85211324D01*
G37*
G36*
X83147127Y-87153286D02*
G01*
X83147127Y-86076432D01*
X83154914Y-86012073D01*
X83174055Y-85975560D01*
X83204817Y-85953106D01*
X83245093Y-85945383D01*
X83285475Y-85953086D01*
X83316729Y-85975560D01*
X83336188Y-86012119D01*
X83344085Y-86076432D01*
X83344085Y-87153286D01*
X83336218Y-87216694D01*
X83316729Y-87253133D01*
X83285475Y-87275606D01*
X83245093Y-87283309D01*
X83205567Y-87275762D01*
X83174568Y-87253646D01*
X83155060Y-87217446D01*
X83147127Y-87153286D01*
G37*
G36*
X84953853Y-88189450D02*
G01*
X83600112Y-87561135D01*
X83554627Y-87536141D01*
X83533861Y-87518136D01*
X83518859Y-87491013D01*
X83513687Y-87457869D01*
X83520834Y-87420530D01*
X83542410Y-87388541D01*
X83573467Y-87366458D01*
X83607378Y-87359391D01*
X83635497Y-87364040D01*
X83682947Y-87382301D01*
X85036944Y-88012581D01*
X85081886Y-88037343D01*
X85102255Y-88054640D01*
X85117124Y-88082406D01*
X85122173Y-88114907D01*
X85115121Y-88152198D01*
X85093963Y-88183722D01*
X85063292Y-88205454D01*
X85029421Y-88212445D01*
X85001307Y-88207780D01*
X84953853Y-88189450D01*
G37*
G36*
X85036602Y-89910947D02*
G01*
X83687478Y-90540287D01*
X83638666Y-90556530D01*
X83605241Y-90562257D01*
X83573287Y-90555591D01*
X83544974Y-90534987D01*
X83525721Y-90504795D01*
X83519158Y-90467625D01*
X83523806Y-90433004D01*
X83536426Y-90408299D01*
X83558865Y-90387911D01*
X83603532Y-90362393D01*
X84952912Y-89734078D01*
X85001102Y-89714920D01*
X85028481Y-89710143D01*
X85062393Y-89717210D01*
X85093450Y-89739293D01*
X85115069Y-89771151D01*
X85122173Y-89807681D01*
X85117630Y-89840599D01*
X85105076Y-89865041D01*
X85082562Y-89885342D01*
X85036602Y-89910947D01*
G37*
G36*
X83147127Y-91852909D02*
G01*
X83147127Y-90776055D01*
X83154914Y-90711696D01*
X83174055Y-90675183D01*
X83204817Y-90652730D01*
X83245093Y-90645006D01*
X83285475Y-90652709D01*
X83316729Y-90675183D01*
X83336188Y-90711742D01*
X83344085Y-90776055D01*
X83344085Y-91852909D01*
X83336218Y-91916317D01*
X83316729Y-91952756D01*
X83285475Y-91975229D01*
X83245093Y-91982932D01*
X83205567Y-91975385D01*
X83174568Y-91953269D01*
X83155060Y-91917069D01*
X83147127Y-91852909D01*
G37*
G36*
X84953853Y-92889073D02*
G01*
X83600112Y-92260758D01*
X83554627Y-92235764D01*
X83533861Y-92217759D01*
X83518859Y-92190636D01*
X83513687Y-92157493D01*
X83520834Y-92120154D01*
X83542410Y-92088164D01*
X83573467Y-92066081D01*
X83607378Y-92059014D01*
X83635497Y-92063663D01*
X83682947Y-92081924D01*
X85036944Y-92712205D01*
X85081886Y-92736966D01*
X85102255Y-92754263D01*
X85117124Y-92782030D01*
X85122173Y-92814530D01*
X85115121Y-92851821D01*
X85093963Y-92883346D01*
X85063292Y-92905078D01*
X85029421Y-92912069D01*
X85001307Y-92907403D01*
X84953853Y-92889073D01*
G37*
G36*
X85036602Y-96960382D02*
G01*
X83687478Y-97589722D01*
X83638666Y-97605964D01*
X83605241Y-97611692D01*
X83573287Y-97605026D01*
X83544974Y-97584422D01*
X83525721Y-97554230D01*
X83519158Y-97517060D01*
X83523806Y-97482438D01*
X83536426Y-97457733D01*
X83558865Y-97437346D01*
X83603532Y-97411828D01*
X84952912Y-96783513D01*
X85001102Y-96764354D01*
X85028481Y-96759577D01*
X85062393Y-96766644D01*
X85093450Y-96788728D01*
X85115069Y-96820585D01*
X85122173Y-96857116D01*
X85117630Y-96890033D01*
X85105076Y-96914476D01*
X85082562Y-96934776D01*
X85036602Y-96960382D01*
G37*
G36*
X83147127Y-98902344D02*
G01*
X83147127Y-97825490D01*
X83154914Y-97761131D01*
X83174055Y-97724617D01*
X83204817Y-97702164D01*
X83245093Y-97694441D01*
X83285475Y-97702144D01*
X83316729Y-97724617D01*
X83336188Y-97761177D01*
X83344085Y-97825490D01*
X83344085Y-98902344D01*
X83336218Y-98965752D01*
X83316729Y-99002191D01*
X83285475Y-99024664D01*
X83245093Y-99032367D01*
X83205567Y-99024820D01*
X83174568Y-99002704D01*
X83155060Y-98966504D01*
X83147127Y-98902344D01*
G37*
G36*
X84953853Y-99938508D02*
G01*
X83600112Y-99310193D01*
X83554627Y-99285199D01*
X83533861Y-99267194D01*
X83518859Y-99240071D01*
X83513687Y-99206927D01*
X83520834Y-99169588D01*
X83542410Y-99137599D01*
X83573467Y-99115516D01*
X83607378Y-99108449D01*
X83635497Y-99113098D01*
X83682947Y-99131359D01*
X85036944Y-99761639D01*
X85081886Y-99786401D01*
X85102255Y-99803698D01*
X85117124Y-99831464D01*
X85122173Y-99863965D01*
X85115121Y-99901256D01*
X85093963Y-99932780D01*
X85063292Y-99954512D01*
X85029421Y-99961503D01*
X85001307Y-99956837D01*
X84953853Y-99938508D01*
G37*
G36*
X85036602Y-101660005D02*
G01*
X83687478Y-102289345D01*
X83638666Y-102305587D01*
X83605241Y-102311315D01*
X83573287Y-102304649D01*
X83544974Y-102284045D01*
X83525721Y-102253853D01*
X83519158Y-102216683D01*
X83523806Y-102182062D01*
X83536426Y-102157356D01*
X83558865Y-102136969D01*
X83603532Y-102111451D01*
X84952912Y-101483136D01*
X85001102Y-101463978D01*
X85028481Y-101459200D01*
X85062393Y-101466268D01*
X85093450Y-101488351D01*
X85115069Y-101520208D01*
X85122173Y-101556739D01*
X85117630Y-101589657D01*
X85105076Y-101614099D01*
X85082562Y-101634400D01*
X85036602Y-101660005D01*
G37*
G36*
X83147127Y-103601967D02*
G01*
X83147127Y-102525113D01*
X83154914Y-102460754D01*
X83174055Y-102424241D01*
X83204817Y-102401787D01*
X83245093Y-102394064D01*
X83285475Y-102401767D01*
X83316729Y-102424241D01*
X83336188Y-102460800D01*
X83344085Y-102525113D01*
X83344085Y-103601967D01*
X83336218Y-103665375D01*
X83316729Y-103701814D01*
X83285475Y-103724287D01*
X83245093Y-103731990D01*
X83205567Y-103724443D01*
X83174568Y-103702327D01*
X83155060Y-103666127D01*
X83147127Y-103601967D01*
G37*
G36*
X84953853Y-104638131D02*
G01*
X83600112Y-104009816D01*
X83554627Y-103984822D01*
X83533861Y-103966817D01*
X83518859Y-103939694D01*
X83513687Y-103906550D01*
X83520834Y-103869212D01*
X83542410Y-103837222D01*
X83573467Y-103815139D01*
X83607378Y-103808072D01*
X83635497Y-103812721D01*
X83682947Y-103830982D01*
X85036944Y-104461263D01*
X85081886Y-104486024D01*
X85102255Y-104503321D01*
X85117124Y-104531088D01*
X85122173Y-104563588D01*
X85115121Y-104600879D01*
X85093963Y-104632404D01*
X85063292Y-104654136D01*
X85029421Y-104661127D01*
X85001307Y-104656461D01*
X84953853Y-104638131D01*
G37*
G36*
X85036602Y-106359628D02*
G01*
X83687478Y-106988968D01*
X83638666Y-107005211D01*
X83605241Y-107010938D01*
X83573287Y-107004273D01*
X83544974Y-106983668D01*
X83525721Y-106953476D01*
X83519158Y-106916306D01*
X83523806Y-106881685D01*
X83536426Y-106856980D01*
X83558865Y-106836593D01*
X83603532Y-106811074D01*
X84952912Y-106182759D01*
X85001102Y-106163601D01*
X85028481Y-106158824D01*
X85062393Y-106165891D01*
X85093450Y-106187974D01*
X85115069Y-106219832D01*
X85122173Y-106256362D01*
X85117630Y-106289280D01*
X85105076Y-106313722D01*
X85082562Y-106334023D01*
X85036602Y-106359628D01*
G37*
G36*
X83147127Y-108301591D02*
G01*
X83147127Y-107224736D01*
X83154914Y-107160377D01*
X83174055Y-107123864D01*
X83204817Y-107101411D01*
X83245093Y-107093688D01*
X83285475Y-107101391D01*
X83316729Y-107123864D01*
X83336188Y-107160423D01*
X83344085Y-107224736D01*
X83344085Y-108301591D01*
X83336218Y-108364998D01*
X83316729Y-108401437D01*
X83285475Y-108423910D01*
X83245093Y-108431613D01*
X83205567Y-108424066D01*
X83174568Y-108401950D01*
X83155060Y-108365750D01*
X83147127Y-108301591D01*
G37*
G36*
X84953853Y-109337754D02*
G01*
X83600112Y-108709439D01*
X83554627Y-108684445D01*
X83533861Y-108666441D01*
X83518859Y-108639317D01*
X83513687Y-108606174D01*
X83520834Y-108568835D01*
X83542410Y-108536845D01*
X83573467Y-108514762D01*
X83607378Y-108507695D01*
X83635497Y-108512344D01*
X83682947Y-108530605D01*
X85036944Y-109160886D01*
X85081886Y-109185647D01*
X85102255Y-109202944D01*
X85117124Y-109230711D01*
X85122173Y-109263211D01*
X85115121Y-109300502D01*
X85093963Y-109332027D01*
X85063292Y-109353759D01*
X85029421Y-109360750D01*
X85001307Y-109356084D01*
X84953853Y-109337754D01*
G37*
G36*
X85036602Y-111059251D02*
G01*
X83687478Y-111688592D01*
X83638666Y-111704834D01*
X83605241Y-111710561D01*
X83573287Y-111703896D01*
X83544974Y-111683292D01*
X83525721Y-111653099D01*
X83519158Y-111615929D01*
X83523806Y-111581308D01*
X83536426Y-111556603D01*
X83558865Y-111536216D01*
X83603532Y-111510697D01*
X84952912Y-110882383D01*
X85001102Y-110863224D01*
X85028481Y-110858447D01*
X85062393Y-110865514D01*
X85093450Y-110887597D01*
X85115069Y-110919455D01*
X85122173Y-110955985D01*
X85117630Y-110988903D01*
X85105076Y-111013346D01*
X85082562Y-111033646D01*
X85036602Y-111059251D01*
G37*
G36*
X83147127Y-113001214D02*
G01*
X83147127Y-111924359D01*
X83154914Y-111860000D01*
X83174055Y-111823487D01*
X83204817Y-111801034D01*
X83245093Y-111793311D01*
X83285475Y-111801014D01*
X83316729Y-111823487D01*
X83336188Y-111860047D01*
X83344085Y-111924359D01*
X83344085Y-113001214D01*
X83336218Y-113064621D01*
X83316729Y-113101060D01*
X83285475Y-113123533D01*
X83245093Y-113131236D01*
X83205567Y-113123690D01*
X83174568Y-113101573D01*
X83155060Y-113065373D01*
X83147127Y-113001214D01*
G37*
G36*
X84953853Y-114037377D02*
G01*
X83600112Y-113409063D01*
X83554627Y-113384068D01*
X83533861Y-113366064D01*
X83518859Y-113338940D01*
X83513687Y-113305797D01*
X83520834Y-113268458D01*
X83542410Y-113236468D01*
X83573467Y-113214385D01*
X83607378Y-113207318D01*
X83635497Y-113211968D01*
X83682947Y-113230228D01*
X85036944Y-113860509D01*
X85081886Y-113885271D01*
X85102255Y-113902568D01*
X85117124Y-113930334D01*
X85122173Y-113962834D01*
X85115121Y-114000125D01*
X85093963Y-114031650D01*
X85063292Y-114053382D01*
X85029421Y-114060373D01*
X85001307Y-114055707D01*
X84953853Y-114037377D01*
G37*
D12*
X138238095Y-72954819D02*
X138238095Y-73764342D01*
X138238095Y-73764342D02*
X138285714Y-73859580D01*
X138285714Y-73859580D02*
X138333333Y-73907200D01*
X138333333Y-73907200D02*
X138428571Y-73954819D01*
X138428571Y-73954819D02*
X138619047Y-73954819D01*
X138619047Y-73954819D02*
X138714285Y-73907200D01*
X138714285Y-73907200D02*
X138761904Y-73859580D01*
X138761904Y-73859580D02*
X138809523Y-73764342D01*
X138809523Y-73764342D02*
X138809523Y-72954819D01*
X139809523Y-73954819D02*
X139238095Y-73954819D01*
X139523809Y-73954819D02*
X139523809Y-72954819D01*
X139523809Y-72954819D02*
X139428571Y-73097676D01*
X139428571Y-73097676D02*
X139333333Y-73192914D01*
X139333333Y-73192914D02*
X139238095Y-73240533D01*
X136738095Y-101454819D02*
X136738095Y-102264342D01*
X136738095Y-102264342D02*
X136785714Y-102359580D01*
X136785714Y-102359580D02*
X136833333Y-102407200D01*
X136833333Y-102407200D02*
X136928571Y-102454819D01*
X136928571Y-102454819D02*
X137119047Y-102454819D01*
X137119047Y-102454819D02*
X137214285Y-102407200D01*
X137214285Y-102407200D02*
X137261904Y-102359580D01*
X137261904Y-102359580D02*
X137309523Y-102264342D01*
X137309523Y-102264342D02*
X137309523Y-101454819D01*
X137738095Y-101550057D02*
X137785714Y-101502438D01*
X137785714Y-101502438D02*
X137880952Y-101454819D01*
X137880952Y-101454819D02*
X138119047Y-101454819D01*
X138119047Y-101454819D02*
X138214285Y-101502438D01*
X138214285Y-101502438D02*
X138261904Y-101550057D01*
X138261904Y-101550057D02*
X138309523Y-101645295D01*
X138309523Y-101645295D02*
X138309523Y-101740533D01*
X138309523Y-101740533D02*
X138261904Y-101883390D01*
X138261904Y-101883390D02*
X137690476Y-102454819D01*
X137690476Y-102454819D02*
X138309523Y-102454819D01*
X115738095Y-61454819D02*
X116309523Y-61454819D01*
X116023809Y-62454819D02*
X116023809Y-61454819D01*
X116642857Y-62454819D02*
X116642857Y-61454819D01*
X116642857Y-61454819D02*
X117023809Y-61454819D01*
X117023809Y-61454819D02*
X117119047Y-61502438D01*
X117119047Y-61502438D02*
X117166666Y-61550057D01*
X117166666Y-61550057D02*
X117214285Y-61645295D01*
X117214285Y-61645295D02*
X117214285Y-61788152D01*
X117214285Y-61788152D02*
X117166666Y-61883390D01*
X117166666Y-61883390D02*
X117119047Y-61931009D01*
X117119047Y-61931009D02*
X117023809Y-61978628D01*
X117023809Y-61978628D02*
X116642857Y-61978628D01*
X117595238Y-61550057D02*
X117642857Y-61502438D01*
X117642857Y-61502438D02*
X117738095Y-61454819D01*
X117738095Y-61454819D02*
X117976190Y-61454819D01*
X117976190Y-61454819D02*
X118071428Y-61502438D01*
X118071428Y-61502438D02*
X118119047Y-61550057D01*
X118119047Y-61550057D02*
X118166666Y-61645295D01*
X118166666Y-61645295D02*
X118166666Y-61740533D01*
X118166666Y-61740533D02*
X118119047Y-61883390D01*
X118119047Y-61883390D02*
X117547619Y-62454819D01*
X117547619Y-62454819D02*
X118166666Y-62454819D01*
X120833333Y-94859580D02*
X120785714Y-94907200D01*
X120785714Y-94907200D02*
X120642857Y-94954819D01*
X120642857Y-94954819D02*
X120547619Y-94954819D01*
X120547619Y-94954819D02*
X120404762Y-94907200D01*
X120404762Y-94907200D02*
X120309524Y-94811961D01*
X120309524Y-94811961D02*
X120261905Y-94716723D01*
X120261905Y-94716723D02*
X120214286Y-94526247D01*
X120214286Y-94526247D02*
X120214286Y-94383390D01*
X120214286Y-94383390D02*
X120261905Y-94192914D01*
X120261905Y-94192914D02*
X120309524Y-94097676D01*
X120309524Y-94097676D02*
X120404762Y-94002438D01*
X120404762Y-94002438D02*
X120547619Y-93954819D01*
X120547619Y-93954819D02*
X120642857Y-93954819D01*
X120642857Y-93954819D02*
X120785714Y-94002438D01*
X120785714Y-94002438D02*
X120833333Y-94050057D01*
X121785714Y-94954819D02*
X121214286Y-94954819D01*
X121500000Y-94954819D02*
X121500000Y-93954819D01*
X121500000Y-93954819D02*
X121404762Y-94097676D01*
X121404762Y-94097676D02*
X121309524Y-94192914D01*
X121309524Y-94192914D02*
X121214286Y-94240533D01*
X105169104Y-88248339D02*
X105169104Y-87772149D01*
X105454819Y-88343577D02*
X104454819Y-88010244D01*
X104454819Y-88010244D02*
X105454819Y-87676911D01*
X105454819Y-86819768D02*
X105454819Y-87391196D01*
X105454819Y-87105482D02*
X104454819Y-87105482D01*
X104454819Y-87105482D02*
X104597676Y-87200720D01*
X104597676Y-87200720D02*
X104692914Y-87295958D01*
X104692914Y-87295958D02*
X104740533Y-87391196D01*
X122938095Y-109254819D02*
X123509523Y-109254819D01*
X123223809Y-110254819D02*
X123223809Y-109254819D01*
X123842857Y-110254819D02*
X123842857Y-109254819D01*
X123842857Y-109254819D02*
X124223809Y-109254819D01*
X124223809Y-109254819D02*
X124319047Y-109302438D01*
X124319047Y-109302438D02*
X124366666Y-109350057D01*
X124366666Y-109350057D02*
X124414285Y-109445295D01*
X124414285Y-109445295D02*
X124414285Y-109588152D01*
X124414285Y-109588152D02*
X124366666Y-109683390D01*
X124366666Y-109683390D02*
X124319047Y-109731009D01*
X124319047Y-109731009D02*
X124223809Y-109778628D01*
X124223809Y-109778628D02*
X123842857Y-109778628D01*
X125366666Y-110254819D02*
X124795238Y-110254819D01*
X125080952Y-110254819D02*
X125080952Y-109254819D01*
X125080952Y-109254819D02*
X124985714Y-109397676D01*
X124985714Y-109397676D02*
X124890476Y-109492914D01*
X124890476Y-109492914D02*
X124795238Y-109540533D01*
X118954819Y-101476666D02*
X118478628Y-101809999D01*
X118954819Y-102048094D02*
X117954819Y-102048094D01*
X117954819Y-102048094D02*
X117954819Y-101667142D01*
X117954819Y-101667142D02*
X118002438Y-101571904D01*
X118002438Y-101571904D02*
X118050057Y-101524285D01*
X118050057Y-101524285D02*
X118145295Y-101476666D01*
X118145295Y-101476666D02*
X118288152Y-101476666D01*
X118288152Y-101476666D02*
X118383390Y-101524285D01*
X118383390Y-101524285D02*
X118431009Y-101571904D01*
X118431009Y-101571904D02*
X118478628Y-101667142D01*
X118478628Y-101667142D02*
X118478628Y-102048094D01*
X118050057Y-101095713D02*
X118002438Y-101048094D01*
X118002438Y-101048094D02*
X117954819Y-100952856D01*
X117954819Y-100952856D02*
X117954819Y-100714761D01*
X117954819Y-100714761D02*
X118002438Y-100619523D01*
X118002438Y-100619523D02*
X118050057Y-100571904D01*
X118050057Y-100571904D02*
X118145295Y-100524285D01*
X118145295Y-100524285D02*
X118240533Y-100524285D01*
X118240533Y-100524285D02*
X118383390Y-100571904D01*
X118383390Y-100571904D02*
X118954819Y-101143332D01*
X118954819Y-101143332D02*
X118954819Y-100524285D01*
X124166666Y-96004819D02*
X124166666Y-96719104D01*
X124166666Y-96719104D02*
X124119047Y-96861961D01*
X124119047Y-96861961D02*
X124023809Y-96957200D01*
X124023809Y-96957200D02*
X123880952Y-97004819D01*
X123880952Y-97004819D02*
X123785714Y-97004819D01*
X125166666Y-97004819D02*
X124595238Y-97004819D01*
X124880952Y-97004819D02*
X124880952Y-96004819D01*
X124880952Y-96004819D02*
X124785714Y-96147676D01*
X124785714Y-96147676D02*
X124690476Y-96242914D01*
X124690476Y-96242914D02*
X124595238Y-96290533D01*
X118954819Y-87856666D02*
X118478628Y-88189999D01*
X118954819Y-88428094D02*
X117954819Y-88428094D01*
X117954819Y-88428094D02*
X117954819Y-88047142D01*
X117954819Y-88047142D02*
X118002438Y-87951904D01*
X118002438Y-87951904D02*
X118050057Y-87904285D01*
X118050057Y-87904285D02*
X118145295Y-87856666D01*
X118145295Y-87856666D02*
X118288152Y-87856666D01*
X118288152Y-87856666D02*
X118383390Y-87904285D01*
X118383390Y-87904285D02*
X118431009Y-87951904D01*
X118431009Y-87951904D02*
X118478628Y-88047142D01*
X118478628Y-88047142D02*
X118478628Y-88428094D01*
X118954819Y-86904285D02*
X118954819Y-87475713D01*
X118954819Y-87189999D02*
X117954819Y-87189999D01*
X117954819Y-87189999D02*
X118097676Y-87285237D01*
X118097676Y-87285237D02*
X118192914Y-87380475D01*
X118192914Y-87380475D02*
X118240533Y-87475713D01*
D13*
%TO.C,U1*%
X125030000Y-63230000D02*
G75*
G02*
X124830000Y-63230000I-100000J0D01*
G01*
X124830000Y-63230000D02*
G75*
G02*
X125030000Y-63230000I100000J0D01*
G01*
D14*
X164880000Y-86090000D02*
X164880000Y-60690000D01*
X164880000Y-60690000D02*
X125760000Y-60690000D01*
X125760000Y-86090000D02*
X164880000Y-86090000D01*
X125760000Y-60690000D02*
X125760000Y-86090000D01*
D15*
%TO.C,G\u002A\u002A\u002A*%
G36*
X120002998Y-66563974D02*
G01*
X120006130Y-66612922D01*
X120008277Y-66685944D01*
X120009161Y-66776037D01*
X120009156Y-66798388D01*
X120008642Y-67050674D01*
X119418980Y-67479085D01*
X119287497Y-67574867D01*
X119166212Y-67663710D01*
X119058467Y-67743130D01*
X118967605Y-67810639D01*
X118896970Y-67863752D01*
X118849905Y-67899984D01*
X118829751Y-67916847D01*
X118829239Y-67917639D01*
X118844102Y-67930700D01*
X118886498Y-67963564D01*
X118953082Y-68013747D01*
X119040511Y-68078764D01*
X119145438Y-68156130D01*
X119264522Y-68243360D01*
X119394416Y-68337970D01*
X119418657Y-68355570D01*
X120008154Y-68783358D01*
X120008912Y-69035644D01*
X120008181Y-69128552D01*
X120005646Y-69205888D01*
X120001681Y-69260686D01*
X119996662Y-69285984D01*
X119995390Y-69286897D01*
X119977736Y-69275586D01*
X119932738Y-69243581D01*
X119863442Y-69193134D01*
X119772896Y-69126496D01*
X119664148Y-69045917D01*
X119540247Y-68953649D01*
X119404239Y-68851943D01*
X119267091Y-68749004D01*
X119087709Y-68613907D01*
X118936459Y-68499161D01*
X118810909Y-68402402D01*
X118708625Y-68321266D01*
X118627175Y-68253391D01*
X118564126Y-68196411D01*
X118517046Y-68147963D01*
X118483503Y-68105684D01*
X118461063Y-68067209D01*
X118447294Y-68030175D01*
X118439763Y-67992218D01*
X118436038Y-67950974D01*
X118435471Y-67940915D01*
X118435637Y-67871479D01*
X118442297Y-67810887D01*
X118449466Y-67784302D01*
X118465162Y-67752304D01*
X118486966Y-67719029D01*
X118517493Y-67682243D01*
X118559356Y-67639716D01*
X118615171Y-67589215D01*
X118687551Y-67528509D01*
X118779113Y-67455365D01*
X118892470Y-67367551D01*
X119030237Y-67262835D01*
X119195028Y-67138986D01*
X119278794Y-67076345D01*
X119423046Y-66968755D01*
X119557910Y-66868484D01*
X119680336Y-66777775D01*
X119787277Y-66698872D01*
X119875685Y-66634017D01*
X119942513Y-66585454D01*
X119984713Y-66555427D01*
X119999159Y-66546101D01*
X120002998Y-66563974D01*
G37*
G36*
X120009670Y-71963118D02*
G01*
X120009670Y-72163043D01*
X119438456Y-72163043D01*
X118867241Y-72163043D01*
X118867241Y-72847786D01*
X118867241Y-73532528D01*
X118694951Y-73538003D01*
X118522660Y-73543478D01*
X119180857Y-74035758D01*
X119222751Y-74067091D01*
X119418474Y-74214258D01*
X119583762Y-74340249D01*
X119719399Y-74445691D01*
X119826171Y-74531211D01*
X119904863Y-74597437D01*
X119956261Y-74644995D01*
X119978442Y-74670287D01*
X120029694Y-74774856D01*
X120046414Y-74887108D01*
X120029098Y-74999789D01*
X119978243Y-75105645D01*
X119945773Y-75147730D01*
X119912640Y-75179607D01*
X119852131Y-75230797D01*
X119763758Y-75301673D01*
X119647035Y-75392611D01*
X119501476Y-75503984D01*
X119326593Y-75636165D01*
X119121900Y-75789528D01*
X118886910Y-75964448D01*
X118767279Y-76053163D01*
X118467391Y-76275315D01*
X118467391Y-76018957D01*
X118467391Y-75762600D01*
X118610195Y-75655117D01*
X118752999Y-75547634D01*
X118752999Y-74894798D01*
X119171889Y-74894798D01*
X119171889Y-75246494D01*
X119410518Y-75072792D01*
X119492086Y-75012291D01*
X119560953Y-74959054D01*
X119611980Y-74917229D01*
X119640026Y-74890964D01*
X119643764Y-74884558D01*
X119627540Y-74869328D01*
X119587034Y-74836983D01*
X119528899Y-74792430D01*
X119459787Y-74740577D01*
X119386352Y-74686329D01*
X119315246Y-74634596D01*
X119253122Y-74590284D01*
X119206633Y-74558300D01*
X119182430Y-74543552D01*
X119180857Y-74543103D01*
X119178027Y-74561155D01*
X119175564Y-74611355D01*
X119173619Y-74687774D01*
X119172344Y-74784480D01*
X119171889Y-74894798D01*
X118752999Y-74894798D01*
X118752999Y-74886487D01*
X118752999Y-74225339D01*
X118610195Y-74124212D01*
X118467391Y-74023085D01*
X118467391Y-73789599D01*
X118466990Y-73697362D01*
X118465897Y-73617929D01*
X118464278Y-73559673D01*
X118462300Y-73530963D01*
X118462259Y-73530755D01*
X118461352Y-73506505D01*
X118461017Y-73448573D01*
X118461226Y-73361351D01*
X118461951Y-73249234D01*
X118463161Y-73116614D01*
X118464830Y-72967885D01*
X118466928Y-72807440D01*
X118467019Y-72800899D01*
X118476912Y-72096401D01*
X118529697Y-72006604D01*
X118573871Y-71943589D01*
X118625572Y-71886385D01*
X118648662Y-71866330D01*
X118686189Y-71839011D01*
X118722604Y-71817079D01*
X118762487Y-71799936D01*
X118810417Y-71786987D01*
X118870975Y-71777633D01*
X118948741Y-71771279D01*
X119048293Y-71767328D01*
X119174211Y-71765183D01*
X119331075Y-71764247D01*
X119433696Y-71764029D01*
X120009670Y-71763193D01*
X120009670Y-71963118D01*
G37*
G36*
X120009670Y-69506896D02*
G01*
X120009670Y-69706821D01*
X119238531Y-69706821D01*
X118467391Y-69706821D01*
X118467391Y-69506896D01*
X118467391Y-69306971D01*
X119238531Y-69306971D01*
X120009670Y-69306971D01*
X120009670Y-69506896D01*
G37*
G36*
X120009670Y-70097151D02*
G01*
X120009670Y-70297076D01*
X119438456Y-70297076D01*
X118867241Y-70297076D01*
X118867241Y-70992053D01*
X118867241Y-71687031D01*
X118667316Y-71687031D01*
X118467391Y-71687031D01*
X118467391Y-70976751D01*
X118467391Y-70266472D01*
X118516711Y-70167501D01*
X118557800Y-70099999D01*
X118607873Y-70037652D01*
X118634647Y-70011970D01*
X118673962Y-69981282D01*
X118712684Y-69956592D01*
X118755370Y-69937252D01*
X118806574Y-69922614D01*
X118870851Y-69912032D01*
X118952757Y-69904856D01*
X119056848Y-69900440D01*
X119187678Y-69898137D01*
X119349803Y-69897298D01*
X119441848Y-69897226D01*
X120009670Y-69897226D01*
X120009670Y-70097151D01*
G37*
G36*
X119389840Y-76200701D02*
G01*
X119509109Y-76204691D01*
X119602341Y-76212733D01*
X119675535Y-76225970D01*
X119734692Y-76245540D01*
X119785813Y-76272583D01*
X119834898Y-76308241D01*
X119842414Y-76314369D01*
X119891077Y-76365228D01*
X119939052Y-76432185D01*
X119960351Y-76469900D01*
X120009670Y-76568871D01*
X120009670Y-77479075D01*
X120009670Y-78389280D01*
X119809745Y-78389280D01*
X119609820Y-78389280D01*
X119609820Y-77494377D01*
X119609820Y-76599475D01*
X119238531Y-76599475D01*
X118867241Y-76599475D01*
X118867241Y-77294452D01*
X118867241Y-77989430D01*
X118952924Y-77989430D01*
X119038606Y-77989430D01*
X119038606Y-77637181D01*
X119038606Y-77284932D01*
X119238531Y-77284932D01*
X119438456Y-77284932D01*
X119438456Y-77838744D01*
X119438456Y-78392556D01*
X119129048Y-78386158D01*
X119013206Y-78383501D01*
X118928125Y-78380324D01*
X118866491Y-78375520D01*
X118820987Y-78367985D01*
X118784299Y-78356615D01*
X118749112Y-78340305D01*
X118719595Y-78324327D01*
X118654826Y-78282032D01*
X118596827Y-78233461D01*
X118571057Y-78205317D01*
X118545449Y-78171070D01*
X118524449Y-78139227D01*
X118507599Y-78105749D01*
X118494444Y-78066597D01*
X118484525Y-78017732D01*
X118477386Y-77955116D01*
X118472570Y-77874711D01*
X118469619Y-77772478D01*
X118468077Y-77644378D01*
X118467487Y-77486373D01*
X118467391Y-77294423D01*
X118467391Y-77289282D01*
X118467391Y-76568871D01*
X118516711Y-76469900D01*
X118557800Y-76402398D01*
X118607873Y-76340051D01*
X118634647Y-76314369D01*
X118683943Y-76277328D01*
X118734379Y-76249072D01*
X118791957Y-76228459D01*
X118862676Y-76214351D01*
X118952538Y-76205606D01*
X119067542Y-76201084D01*
X119213691Y-76199645D01*
X119238531Y-76199625D01*
X119389840Y-76200701D01*
G37*
G36*
X119374462Y-78570640D02*
G01*
X119478482Y-78572372D01*
X119556752Y-78575812D01*
X119615433Y-78581415D01*
X119660686Y-78589635D01*
X119698673Y-78600927D01*
X119709252Y-78604857D01*
X119790678Y-78650875D01*
X119870607Y-78720646D01*
X119938186Y-78802682D01*
X119982562Y-78885496D01*
X119987035Y-78898883D01*
X119993005Y-78932992D01*
X119997987Y-78993303D01*
X120002025Y-79081657D01*
X120005162Y-79199895D01*
X120007441Y-79349858D01*
X120008905Y-79533388D01*
X120009598Y-79752327D01*
X120009670Y-79862366D01*
X120009670Y-80750299D01*
X119809745Y-80750299D01*
X119609820Y-80750299D01*
X119609820Y-79864917D01*
X119609820Y-78979535D01*
X119524138Y-78979535D01*
X119438456Y-78979535D01*
X119438456Y-79864917D01*
X119438456Y-80750299D01*
X119238531Y-80750299D01*
X119038606Y-80750299D01*
X119038606Y-79864917D01*
X119038606Y-78979535D01*
X118952924Y-78979535D01*
X118867241Y-78979535D01*
X118867241Y-79864917D01*
X118867241Y-80750299D01*
X118667316Y-80750299D01*
X118467391Y-80750299D01*
X118469335Y-79850637D01*
X118470293Y-79614449D01*
X118472061Y-79408994D01*
X118474612Y-79235514D01*
X118477916Y-79095250D01*
X118481945Y-78989446D01*
X118486670Y-78919344D01*
X118491553Y-78887618D01*
X118528950Y-78814271D01*
X118590532Y-78737161D01*
X118665433Y-78667410D01*
X118742787Y-78616140D01*
X118767810Y-78604857D01*
X118804839Y-78592586D01*
X118847340Y-78583518D01*
X118901476Y-78577200D01*
X118973407Y-78573177D01*
X119069294Y-78570995D01*
X119195298Y-78570200D01*
X119238531Y-78570164D01*
X119374462Y-78570640D01*
G37*
G36*
X120860760Y-71298233D02*
G01*
X120905918Y-71329897D01*
X120975417Y-71379933D01*
X121066196Y-71446101D01*
X121175195Y-71526161D01*
X121299353Y-71617874D01*
X121435610Y-71719000D01*
X121544979Y-71800509D01*
X121571303Y-71820128D01*
X121751764Y-71955230D01*
X121903957Y-72070207D01*
X122030382Y-72167369D01*
X122133542Y-72249025D01*
X122215939Y-72317485D01*
X122280073Y-72375059D01*
X122328447Y-72424057D01*
X122363564Y-72466788D01*
X122387923Y-72505563D01*
X122404029Y-72542690D01*
X122414381Y-72580480D01*
X122418514Y-72602295D01*
X122418793Y-72710298D01*
X122387142Y-72819014D01*
X122329993Y-72912296D01*
X122303456Y-72937477D01*
X122249640Y-72982687D01*
X122171885Y-73045315D01*
X122073532Y-73122749D01*
X121957922Y-73212377D01*
X121828395Y-73311587D01*
X121688290Y-73417769D01*
X121566349Y-73509334D01*
X120858626Y-74038530D01*
X121486135Y-74048102D01*
X121668873Y-74051026D01*
X121817779Y-74054168D01*
X121937099Y-74058283D01*
X122031077Y-74064128D01*
X122103959Y-74072460D01*
X122159990Y-74084033D01*
X122203415Y-74099606D01*
X122238480Y-74119933D01*
X122269429Y-74145772D01*
X122300508Y-74177877D01*
X122317061Y-74196116D01*
X122387191Y-74300272D01*
X122423148Y-74416996D01*
X122427519Y-74476461D01*
X122425083Y-74515618D01*
X122416391Y-74554872D01*
X122399194Y-74597010D01*
X122371248Y-74644815D01*
X122330306Y-74701071D01*
X122274120Y-74768564D01*
X122200445Y-74850076D01*
X122107035Y-74948392D01*
X121991643Y-75066297D01*
X121852021Y-75206576D01*
X121782399Y-75276038D01*
X121662922Y-75395404D01*
X121552288Y-75506590D01*
X121453326Y-75606705D01*
X121368867Y-75692854D01*
X121301738Y-75762147D01*
X121254772Y-75811688D01*
X121230797Y-75838587D01*
X121228261Y-75842493D01*
X121246532Y-75846072D01*
X121298267Y-75849327D01*
X121378852Y-75852144D01*
X121483670Y-75854407D01*
X121608105Y-75856002D01*
X121747543Y-75856815D01*
X121808996Y-75856896D01*
X122389730Y-75856896D01*
X122389730Y-76056821D01*
X122389730Y-76256746D01*
X121745349Y-76256746D01*
X121571681Y-76256689D01*
X121431816Y-76256344D01*
X121321472Y-76255452D01*
X121236370Y-76253751D01*
X121172232Y-76250981D01*
X121124776Y-76246883D01*
X121089725Y-76241195D01*
X121062798Y-76233658D01*
X121039716Y-76224011D01*
X121017050Y-76212443D01*
X120953525Y-76168208D01*
X120893799Y-76109811D01*
X120876588Y-76087860D01*
X120843303Y-76033379D01*
X120824732Y-75979035D01*
X120815966Y-75908404D01*
X120814438Y-75879876D01*
X120817947Y-75765018D01*
X120838611Y-75685532D01*
X120859118Y-75656365D01*
X120904463Y-75603176D01*
X120972224Y-75528537D01*
X121059984Y-75435022D01*
X121165322Y-75325202D01*
X121285820Y-75201650D01*
X121419057Y-75066939D01*
X121442997Y-75042916D01*
X122017606Y-74466941D01*
X121423503Y-74466941D01*
X120829400Y-74466941D01*
X120829144Y-74003613D01*
X120828887Y-73540285D01*
X120980973Y-73431398D01*
X121133059Y-73322511D01*
X121132385Y-72668064D01*
X121532909Y-72668064D01*
X121532909Y-72668562D01*
X121533337Y-72794818D01*
X121534840Y-72887335D01*
X121537747Y-72950450D01*
X121542386Y-72988497D01*
X121549086Y-73005812D01*
X121558176Y-73006730D01*
X121558522Y-73006530D01*
X121582587Y-72990306D01*
X121631149Y-72956168D01*
X121697901Y-72908596D01*
X121776538Y-72852068D01*
X121805703Y-72830995D01*
X121904695Y-72757177D01*
X121971261Y-72702389D01*
X122005768Y-72666306D01*
X122009944Y-72649809D01*
X121988420Y-72631019D01*
X121943661Y-72596345D01*
X121882395Y-72550625D01*
X121811350Y-72498700D01*
X121737254Y-72445409D01*
X121666835Y-72395590D01*
X121606822Y-72354084D01*
X121563942Y-72325731D01*
X121544979Y-72315367D01*
X121541177Y-72333420D01*
X121537867Y-72383635D01*
X121535251Y-72460093D01*
X121533531Y-72556875D01*
X121532909Y-72668064D01*
X121132385Y-72668064D01*
X121132379Y-72661855D01*
X121131699Y-72001199D01*
X120980055Y-71892087D01*
X120828411Y-71782976D01*
X120828411Y-71535078D01*
X120829462Y-71442926D01*
X120832340Y-71366300D01*
X120836627Y-71312262D01*
X120841908Y-71287879D01*
X120843004Y-71287181D01*
X120860760Y-71298233D01*
G37*
G36*
X121643713Y-81074088D02*
G01*
X121783869Y-81074546D01*
X121894543Y-81075598D01*
X121980036Y-81077482D01*
X122044647Y-81080432D01*
X122092674Y-81084687D01*
X122128419Y-81090481D01*
X122156181Y-81098052D01*
X122180259Y-81107637D01*
X122193337Y-81113778D01*
X122293289Y-81181050D01*
X122366007Y-81268924D01*
X122410133Y-81370769D01*
X122424312Y-81479953D01*
X122407185Y-81589843D01*
X122357396Y-81693807D01*
X122321399Y-81739767D01*
X122280718Y-81774980D01*
X122207454Y-81826996D01*
X122102810Y-81895042D01*
X121967986Y-81978345D01*
X121804183Y-82076132D01*
X121741932Y-82112642D01*
X121615588Y-82186846D01*
X121500522Y-82255202D01*
X121400686Y-82315302D01*
X121320033Y-82364735D01*
X121262515Y-82401092D01*
X121232086Y-82421964D01*
X121228261Y-82425796D01*
X121244060Y-82438327D01*
X121288788Y-82467531D01*
X121358446Y-82510954D01*
X121449031Y-82566145D01*
X121556543Y-82630653D01*
X121676981Y-82702026D01*
X121728073Y-82732061D01*
X121856870Y-82808322D01*
X121978068Y-82881436D01*
X122086870Y-82948407D01*
X122178483Y-83006236D01*
X122248112Y-83051927D01*
X122290960Y-83082482D01*
X122297793Y-83088174D01*
X122356232Y-83159649D01*
X122401446Y-83250203D01*
X122425699Y-83342812D01*
X122427811Y-83374308D01*
X122410253Y-83480993D01*
X122362180Y-83584055D01*
X122290493Y-83672780D01*
X122202090Y-83736457D01*
X122191152Y-83741696D01*
X122167230Y-83751296D01*
X122139399Y-83758994D01*
X122103405Y-83765002D01*
X122054996Y-83769528D01*
X121989921Y-83772785D01*
X121903925Y-83774981D01*
X121792758Y-83776327D01*
X121652167Y-83777035D01*
X121477899Y-83777313D01*
X121471027Y-83777317D01*
X120828411Y-83777736D01*
X120828411Y-83578082D01*
X120828411Y-83378428D01*
X121420358Y-83373397D01*
X122012306Y-83368365D01*
X121521557Y-83082758D01*
X121393893Y-83008133D01*
X121273787Y-82937307D01*
X121166092Y-82873192D01*
X121075661Y-82818697D01*
X121007350Y-82776732D01*
X120966013Y-82750208D01*
X120960697Y-82746501D01*
X120885700Y-82670118D01*
X120835083Y-82572089D01*
X120810857Y-82461589D01*
X120815035Y-82347791D01*
X120849605Y-82239917D01*
X120884260Y-82182059D01*
X120923119Y-82134046D01*
X120935772Y-82122540D01*
X120963283Y-82104139D01*
X121019290Y-82069258D01*
X121099370Y-82020558D01*
X121199102Y-81960702D01*
X121314062Y-81892354D01*
X121439828Y-81818177D01*
X121496605Y-81784871D01*
X122011475Y-81483358D01*
X121419943Y-81478326D01*
X120828411Y-81473295D01*
X120828411Y-81273641D01*
X120828411Y-81073987D01*
X121469776Y-81073987D01*
X121643713Y-81074088D01*
G37*
G36*
X121618591Y-66707945D02*
G01*
X121765267Y-66708445D01*
X121879793Y-66710752D01*
X121968094Y-66716080D01*
X122036096Y-66725644D01*
X122089725Y-66740657D01*
X122134906Y-66762333D01*
X122177567Y-66791886D01*
X122223631Y-66830528D01*
X122225632Y-66832284D01*
X122279326Y-66888561D01*
X122327172Y-66953397D01*
X122338491Y-66972709D01*
X122349264Y-66994035D01*
X122358046Y-67016393D01*
X122365077Y-67043792D01*
X122370597Y-67080238D01*
X122374847Y-67129737D01*
X122378067Y-67196296D01*
X122380497Y-67283922D01*
X122382379Y-67396621D01*
X122383952Y-67538399D01*
X122385456Y-67713263D01*
X122385844Y-67761908D01*
X122387217Y-67960480D01*
X122387594Y-68124948D01*
X122386517Y-68259286D01*
X122383527Y-68367469D01*
X122378167Y-68453468D01*
X122369979Y-68521258D01*
X122358504Y-68574813D01*
X122343285Y-68618106D01*
X122323864Y-68655111D01*
X122299782Y-68689802D01*
X122275368Y-68720361D01*
X122224249Y-68769323D01*
X122157107Y-68817487D01*
X122119455Y-68838761D01*
X122084702Y-68855443D01*
X122052664Y-68867864D01*
X122017161Y-68876653D01*
X121972014Y-68882437D01*
X121911042Y-68885844D01*
X121828067Y-68887501D01*
X121716907Y-68888037D01*
X121633893Y-68888080D01*
X121247301Y-68888080D01*
X121247301Y-68954722D01*
X121247301Y-69021364D01*
X121037856Y-69021364D01*
X120828411Y-69021364D01*
X120829032Y-68083620D01*
X120829275Y-67867972D01*
X120829768Y-67686946D01*
X120830629Y-67537080D01*
X120831972Y-67414916D01*
X120833914Y-67316993D01*
X120836569Y-67239852D01*
X120840054Y-67180033D01*
X120844483Y-67134077D01*
X120847072Y-67117316D01*
X121247301Y-67117316D01*
X121247301Y-67802773D01*
X121247301Y-68488230D01*
X121618591Y-68488230D01*
X121989880Y-68488230D01*
X121989880Y-67802773D01*
X121989880Y-67117316D01*
X121618591Y-67117316D01*
X121247301Y-67117316D01*
X120847072Y-67117316D01*
X120849974Y-67098522D01*
X120856640Y-67069911D01*
X120863656Y-67047484D01*
X120918162Y-66929052D01*
X120992494Y-66838975D01*
X121092836Y-66770051D01*
X121109100Y-66761785D01*
X121218741Y-66707945D01*
X121618591Y-66707945D01*
G37*
G36*
X122389730Y-69373613D02*
G01*
X122389730Y-69573538D01*
X121818516Y-69573538D01*
X121247301Y-69573538D01*
X121247301Y-70258995D01*
X121247301Y-70944452D01*
X121818516Y-70944452D01*
X122389730Y-70944452D01*
X122389730Y-71155138D01*
X122389730Y-71365823D01*
X121804235Y-71359823D01*
X121218741Y-71353823D01*
X121107872Y-71299383D01*
X121007049Y-71235800D01*
X120941080Y-71167743D01*
X120912429Y-71126144D01*
X120889079Y-71085386D01*
X120870507Y-71041180D01*
X120856190Y-70989234D01*
X120845602Y-70925256D01*
X120838220Y-70844955D01*
X120833521Y-70744040D01*
X120830981Y-70618219D01*
X120830076Y-70463201D01*
X120830281Y-70274694D01*
X120830323Y-70260299D01*
X120831281Y-70104626D01*
X120833114Y-69958317D01*
X120835687Y-69826458D01*
X120838866Y-69714133D01*
X120842516Y-69626427D01*
X120846501Y-69568427D01*
X120849195Y-69549118D01*
X120868212Y-69485518D01*
X120891576Y-69428022D01*
X120893422Y-69424368D01*
X120936818Y-69363130D01*
X121000684Y-69298891D01*
X121072880Y-69241959D01*
X121141269Y-69202641D01*
X121164386Y-69194280D01*
X121206137Y-69188223D01*
X121282377Y-69183076D01*
X121389523Y-69178949D01*
X121523992Y-69175958D01*
X121682199Y-69174215D01*
X121813756Y-69173794D01*
X122389730Y-69173688D01*
X122389730Y-69373613D01*
G37*
G36*
X122389730Y-77475337D02*
G01*
X122389730Y-78560644D01*
X122189805Y-78560644D01*
X121989880Y-78560644D01*
X121989880Y-78122713D01*
X121989880Y-77684782D01*
X121409145Y-77684782D01*
X120828411Y-77684782D01*
X120828411Y-77484857D01*
X120828411Y-77284932D01*
X121409145Y-77284932D01*
X121989880Y-77284932D01*
X121989880Y-76837481D01*
X121989880Y-76390029D01*
X122189805Y-76390029D01*
X122389730Y-76390029D01*
X122389730Y-77475337D01*
G37*
G36*
X122389730Y-78902133D02*
G01*
X122389730Y-79112818D01*
X121818516Y-79112818D01*
X121247301Y-79112818D01*
X121247301Y-79798275D01*
X121247301Y-80483733D01*
X121818516Y-80483733D01*
X122389730Y-80483733D01*
X122389730Y-80683658D01*
X122389730Y-80883583D01*
X121815965Y-80883583D01*
X121615164Y-80882797D01*
X121451634Y-80880420D01*
X121324597Y-80876426D01*
X121233277Y-80870788D01*
X121176894Y-80863478D01*
X121166649Y-80860947D01*
X121091086Y-80824664D01*
X121011064Y-80764521D01*
X120938244Y-80691160D01*
X120884286Y-80615224D01*
X120873446Y-80593363D01*
X120864048Y-80568975D01*
X120856396Y-80540478D01*
X120850276Y-80503768D01*
X120845473Y-80454743D01*
X120841771Y-80389299D01*
X120838957Y-80303332D01*
X120836815Y-80192738D01*
X120835131Y-80053416D01*
X120833688Y-79881260D01*
X120833300Y-79826836D01*
X120832180Y-79644551D01*
X120831715Y-79496128D01*
X120832067Y-79377351D01*
X120833395Y-79284004D01*
X120835860Y-79211872D01*
X120839622Y-79156737D01*
X120844842Y-79114385D01*
X120851679Y-79080599D01*
X120860293Y-79051165D01*
X120863096Y-79042986D01*
X120918045Y-78924613D01*
X120992207Y-78834744D01*
X121091888Y-78766054D01*
X121109100Y-78757287D01*
X121218741Y-78703448D01*
X121804235Y-78697447D01*
X122389730Y-78691447D01*
X122389730Y-78902133D01*
G37*
D14*
%TO.C,U2*%
X125760000Y-89300000D02*
X125760000Y-114700000D01*
X125760000Y-114700000D02*
X164880000Y-114700000D01*
X164880000Y-89300000D02*
X125760000Y-89300000D01*
X164880000Y-114700000D02*
X164880000Y-89300000D01*
D13*
X125030000Y-91840000D02*
G75*
G02*
X124830000Y-91840000I-100000J0D01*
G01*
X124830000Y-91840000D02*
G75*
G02*
X125030000Y-91840000I100000J0D01*
G01*
D16*
%TO.C,TP2*%
X122200000Y-62500000D02*
G75*
G02*
X118800000Y-62500000I-1700000J0D01*
G01*
X118800000Y-62500000D02*
G75*
G02*
X122200000Y-62500000I1700000J0D01*
G01*
%TO.C,C1*%
X118530000Y-93130000D02*
X118530000Y-93445000D01*
X118530000Y-93130000D02*
X123470000Y-93130000D01*
X118530000Y-95555000D02*
X118530000Y-95870000D01*
X118530000Y-95870000D02*
X123470000Y-95870000D01*
X123470000Y-93130000D02*
X123470000Y-93445000D01*
X123470000Y-95555000D02*
X123470000Y-95870000D01*
%TO.C,A1*%
X94390000Y-65467500D02*
X93910000Y-65467500D01*
X94390000Y-65467500D02*
X94390000Y-65887500D01*
X94390000Y-68007500D02*
X94390000Y-68427500D01*
X94390000Y-70547500D02*
X94390000Y-70967500D01*
X94390000Y-73087500D02*
X94390000Y-73507500D01*
X94390000Y-75627500D02*
X94390000Y-76047500D01*
X94390000Y-78167500D02*
X94390000Y-78587500D01*
X94390000Y-80707500D02*
X94390000Y-81127500D01*
X94390000Y-83247500D02*
X94390000Y-83667500D01*
X94390000Y-85787500D02*
X94390000Y-86207500D01*
X94390000Y-88327500D02*
X94390000Y-88747500D01*
X94390000Y-90867500D02*
X94390000Y-91287500D01*
X94390000Y-93407500D02*
X94390000Y-93827500D01*
X94390000Y-95947500D02*
X94390000Y-96367500D01*
X94390000Y-98487500D02*
X94390000Y-98907500D01*
X94390000Y-101027500D02*
X94390000Y-101447500D01*
X94390000Y-103567500D02*
X94390000Y-103987500D01*
X94390000Y-106107500D02*
X94390000Y-106527500D01*
X94390000Y-108647500D02*
X94390000Y-109067500D01*
X94390000Y-111187500D02*
X94390000Y-111607500D01*
X94420324Y-63347500D02*
X93910000Y-63347500D01*
X94730000Y-63347563D02*
X94730000Y-62990500D01*
X94730000Y-65467500D02*
X94730000Y-65887500D01*
X94730000Y-68007500D02*
X94730000Y-68427500D01*
X94730000Y-70547500D02*
X94730000Y-70967500D01*
X94730000Y-73087500D02*
X94730000Y-73507500D01*
X94730000Y-75627500D02*
X94730000Y-76047500D01*
X94730000Y-78167500D02*
X94730000Y-78587500D01*
X94730000Y-80707500D02*
X94730000Y-81127500D01*
X94730000Y-83247500D02*
X94730000Y-83667500D01*
X94730000Y-85787500D02*
X94730000Y-86207500D01*
X94730000Y-88327500D02*
X94730000Y-88747500D01*
X94730000Y-90867500D02*
X94730000Y-91287500D01*
X94730000Y-93407500D02*
X94730000Y-93827500D01*
X94730000Y-95947500D02*
X94730000Y-96367500D01*
X94730000Y-98487500D02*
X94730000Y-98907500D01*
X94730000Y-101027500D02*
X94730000Y-101447500D01*
X94730000Y-103567500D02*
X94730000Y-103987500D01*
X94730000Y-106107500D02*
X94730000Y-106527500D01*
X94730000Y-108647500D02*
X94730000Y-109067500D01*
X94730000Y-111187500D02*
X94730000Y-111607500D01*
X94730000Y-113727437D02*
X94730000Y-114084500D01*
X95000000Y-62927500D02*
X97490000Y-62927500D01*
X95000000Y-114147500D02*
X98837939Y-114147500D01*
X97490000Y-62927500D02*
X97490000Y-63841020D01*
X97490000Y-62927500D02*
X98837940Y-62927500D01*
X97490000Y-66233980D02*
X97490000Y-110841020D01*
X97490000Y-113233980D02*
X97490000Y-114147500D01*
X99762061Y-62927500D02*
X100765000Y-62927500D01*
X100765000Y-62927500D02*
X109235000Y-62927500D01*
X101100000Y-62927500D02*
X101100000Y-63843500D01*
X101100000Y-66231500D02*
X101100000Y-67447500D01*
X101100000Y-67447500D02*
X101396090Y-67447500D01*
X101400000Y-114147500D02*
X99762061Y-114147500D01*
X103753910Y-67447500D02*
X106246090Y-67447500D01*
X108600000Y-114147500D02*
X101400000Y-114147500D01*
X108603910Y-67447500D02*
X108900000Y-67447500D01*
X108900000Y-62927500D02*
X108900000Y-63843500D01*
X108900000Y-66231500D02*
X108900000Y-67447500D01*
X109235000Y-62927500D02*
X110237939Y-62927500D01*
X110237939Y-114147500D02*
X108600000Y-114147500D01*
X111162061Y-62927500D02*
X112510000Y-62927500D01*
X111162061Y-114147500D02*
X115000000Y-114147500D01*
X112510000Y-62927500D02*
X112510000Y-63841020D01*
X112510000Y-66233980D02*
X112510000Y-110841020D01*
X112510000Y-113233980D02*
X112510000Y-114147500D01*
X115000000Y-62927500D02*
X112510000Y-62927500D01*
X115270000Y-63347563D02*
X115270000Y-62990500D01*
X115270000Y-65467500D02*
X115270000Y-65887500D01*
X115270000Y-68007500D02*
X115270000Y-68427500D01*
X115270000Y-70547500D02*
X115270000Y-70967500D01*
X115270000Y-73087500D02*
X115270000Y-73507500D01*
X115270000Y-75627500D02*
X115270000Y-76047500D01*
X115270000Y-78167500D02*
X115270000Y-78587500D01*
X115270000Y-80707500D02*
X115270000Y-81127500D01*
X115270000Y-83247500D02*
X115270000Y-83667500D01*
X115270000Y-85787500D02*
X115270000Y-86207500D01*
X115270000Y-88327500D02*
X115270000Y-88747500D01*
X115270000Y-90867500D02*
X115270000Y-91287500D01*
X115270000Y-93407500D02*
X115270000Y-93827500D01*
X115270000Y-95947500D02*
X115270000Y-96367500D01*
X115270000Y-98487500D02*
X115270000Y-98907500D01*
X115270000Y-101027500D02*
X115270000Y-101447500D01*
X115270000Y-103567500D02*
X115270000Y-103987500D01*
X115270000Y-106107500D02*
X115270000Y-106527500D01*
X115270000Y-108647500D02*
X115270000Y-109067500D01*
X115270000Y-111187500D02*
X115270000Y-111607500D01*
X115270000Y-113727437D02*
X115270000Y-114084500D01*
X115610000Y-65467500D02*
X115610000Y-65887500D01*
X115610000Y-68007500D02*
X115610000Y-68427500D01*
X115610000Y-70547500D02*
X115610000Y-70967500D01*
X115610000Y-73087500D02*
X115610000Y-73507500D01*
X115610000Y-75627500D02*
X115610000Y-76047500D01*
X115610000Y-78167500D02*
X115610000Y-78587500D01*
X115610000Y-80707500D02*
X115610000Y-81127500D01*
X115610000Y-83247500D02*
X115610000Y-83667500D01*
X115610000Y-85787500D02*
X115610000Y-86207500D01*
X115610000Y-88327500D02*
X115610000Y-88747500D01*
X115610000Y-90867500D02*
X115610000Y-91287500D01*
X115610000Y-93407500D02*
X115610000Y-93827500D01*
X115610000Y-95947500D02*
X115610000Y-96367500D01*
X115610000Y-98487500D02*
X115610000Y-98907500D01*
X115610000Y-101027500D02*
X115610000Y-101447500D01*
X115610000Y-103567500D02*
X115610000Y-103987500D01*
X115610000Y-106107500D02*
X115610000Y-106527500D01*
X115610000Y-108647500D02*
X115610000Y-109067500D01*
X115610000Y-111187500D02*
X115610000Y-111607500D01*
X94420324Y-63347500D02*
G75*
G02*
X95000000Y-62927500I579692J-190051D01*
G01*
X95000000Y-114147500D02*
G75*
G02*
X94420324Y-113727437I1J610002D01*
G01*
X115000000Y-62927500D02*
G75*
G02*
X115579676Y-63347563I0J-610000D01*
G01*
X115579676Y-113727437D02*
G75*
G02*
X115000000Y-114147569I-579676J189837D01*
G01*
%TO.C,TP1*%
X122700000Y-110500000D02*
G75*
G02*
X119300000Y-110500000I-1700000J0D01*
G01*
X119300000Y-110500000D02*
G75*
G02*
X122700000Y-110500000I1700000J0D01*
G01*
%TO.C,R2*%
X117130000Y-98040000D02*
X117130000Y-104580000D01*
X117130000Y-104580000D02*
X117460000Y-104580000D01*
X117460000Y-98040000D02*
X117130000Y-98040000D01*
X119540000Y-98040000D02*
X119870000Y-98040000D01*
X119870000Y-98040000D02*
X119870000Y-104580000D01*
X119870000Y-104580000D02*
X119540000Y-104580000D01*
%TO.C,J1*%
X122170000Y-97550000D02*
X123500000Y-97550000D01*
X122170000Y-98880000D02*
X122170000Y-97550000D01*
X122170000Y-100150000D02*
X122170000Y-107830000D01*
X122170000Y-100150000D02*
X124830000Y-100150000D01*
X122170000Y-107830000D02*
X124830000Y-107830000D01*
X124830000Y-100150000D02*
X124830000Y-107830000D01*
%TO.C,R1*%
X117130000Y-84420000D02*
X117130000Y-90960000D01*
X117130000Y-90960000D02*
X117460000Y-90960000D01*
X117460000Y-84420000D02*
X117130000Y-84420000D01*
X119540000Y-84420000D02*
X119870000Y-84420000D01*
X119870000Y-84420000D02*
X119870000Y-90960000D01*
X119870000Y-90960000D02*
X119540000Y-90960000D01*
%TD*%
M02*
