%TF.GenerationSoftware,KiCad,Pcbnew,9.0.0*%
%TF.CreationDate,2026-03-23T09:41:59+00:00*%
%TF.ProjectId,EntropyLoop-v1,456e7472-6f70-4794-9c6f-6f702d76312e,rev?*%
%TF.SameCoordinates,Original*%
%TF.FileFunction,Soldermask,Top*%
%TF.FilePolarity,Negative*%
%FSLAX46Y46*%
G04 Gerber Fmt 4.6, Leading zero omitted, Abs format (unit mm)*
G04 Created by KiCad (PCBNEW 9.0.0) date 2026-03-23 09:41:59*
%MOMM*%
%LPD*%
G01*
G04 APERTURE LIST*
G04 Aperture macros list*
%AMRoundRect*
0 Rectangle with rounded corners*
0 $1 Rounding radius*
0 $2 $3 $4 $5 $6 $7 $8 $9 X,Y pos of 4 corners*
0 Add a 4 corners polygon primitive as box body*
4,1,4,$2,$3,$4,$5,$6,$7,$8,$9,$2,$3,0*
0 Add four circle primitives for the rounded corners*
1,1,$1+$1,$2,$3*
1,1,$1+$1,$4,$5*
1,1,$1+$1,$6,$7*
1,1,$1+$1,$8,$9*
0 Add four rect primitives between the rounded corners*
20,1,$1+$1,$2,$3,$4,$5,0*
20,1,$1+$1,$4,$5,$6,$7,0*
20,1,$1+$1,$6,$7,$8,$9,0*
20,1,$1+$1,$8,$9,$2,$3,0*%
%AMFreePoly0*
4,1,37,0.800000,0.796148,0.878414,0.796148,1.032228,0.765552,1.177117,0.705537,1.307515,0.618408,1.418408,0.507515,1.505537,0.377117,1.565552,0.232228,1.596148,0.078414,1.596148,-0.078414,1.565552,-0.232228,1.505537,-0.377117,1.418408,-0.507515,1.307515,-0.618408,1.177117,-0.705537,1.032228,-0.765552,0.878414,-0.796148,0.800000,-0.796148,0.800000,-0.800000,-1.400000,-0.800000,
-1.403843,-0.796157,-1.439018,-0.796157,-1.511114,-0.766294,-1.566294,-0.711114,-1.596157,-0.639018,-1.596157,-0.603843,-1.600000,-0.600000,-1.600000,0.600000,-1.596157,0.603843,-1.596157,0.639018,-1.566294,0.711114,-1.511114,0.766294,-1.439018,0.796157,-1.403843,0.796157,-1.400000,0.800000,0.800000,0.800000,0.800000,0.796148,0.800000,0.796148,$1*%
%AMFreePoly1*
4,1,37,1.403843,0.796157,1.439018,0.796157,1.511114,0.766294,1.566294,0.711114,1.596157,0.639018,1.596157,0.603843,1.600000,0.600000,1.600000,-0.600000,1.596157,-0.603843,1.596157,-0.639018,1.566294,-0.711114,1.511114,-0.766294,1.439018,-0.796157,1.403843,-0.796157,1.400000,-0.800000,-0.800000,-0.800000,-0.800000,-0.796148,-0.878414,-0.796148,-1.032228,-0.765552,-1.177117,-0.705537,
-1.307515,-0.618408,-1.418408,-0.507515,-1.505537,-0.377117,-1.565552,-0.232228,-1.596148,-0.078414,-1.596148,0.078414,-1.565552,0.232228,-1.505537,0.377117,-1.418408,0.507515,-1.307515,0.618408,-1.177117,0.705537,-1.032228,0.765552,-0.878414,0.796148,-0.800000,0.796148,-0.800000,0.800000,1.400000,0.800000,1.403843,0.796157,1.403843,0.796157,$1*%
%AMFreePoly2*
4,1,37,0.603843,0.796157,0.639018,0.796157,0.711114,0.766294,0.766294,0.711114,0.796157,0.639018,0.796157,0.603843,0.800000,0.600000,0.800000,-0.600000,0.796157,-0.603843,0.796157,-0.639018,0.766294,-0.711114,0.711114,-0.766294,0.639018,-0.796157,0.603843,-0.796157,0.600000,-0.800000,0.000000,-0.800000,0.000000,-0.796148,-0.078414,-0.796148,-0.232228,-0.765552,-0.377117,-0.705537,
-0.507515,-0.618408,-0.618408,-0.507515,-0.705537,-0.377117,-0.765552,-0.232228,-0.796148,-0.078414,-0.796148,0.078414,-0.765552,0.232228,-0.705537,0.377117,-0.618408,0.507515,-0.507515,0.618408,-0.377117,0.705537,-0.232228,0.765552,-0.078414,0.796148,0.000000,0.796148,0.000000,0.800000,0.600000,0.800000,0.603843,0.796157,0.603843,0.796157,$1*%
%AMFreePoly3*
4,1,37,0.000000,0.796148,0.078414,0.796148,0.232228,0.765552,0.377117,0.705537,0.507515,0.618408,0.618408,0.507515,0.705537,0.377117,0.765552,0.232228,0.796148,0.078414,0.796148,-0.078414,0.765552,-0.232228,0.705537,-0.377117,0.618408,-0.507515,0.507515,-0.618408,0.377117,-0.705537,0.232228,-0.765552,0.078414,-0.796148,0.000000,-0.796148,0.000000,-0.800000,-0.600000,-0.800000,
-0.603843,-0.796157,-0.639018,-0.796157,-0.711114,-0.766294,-0.766294,-0.711114,-0.796157,-0.639018,-0.796157,-0.603843,-0.800000,-0.600000,-0.800000,0.600000,-0.796157,0.603843,-0.796157,0.639018,-0.766294,0.711114,-0.711114,0.766294,-0.639018,0.796157,-0.603843,0.796157,-0.600000,0.800000,0.000000,0.800000,0.000000,0.796148,0.000000,0.796148,$1*%
G04 Aperture macros list end*
%ADD10C,3.204000*%
%ADD11C,1.612000*%
%ADD12RoundRect,0.102000X-0.704000X-0.704000X0.704000X-0.704000X0.704000X0.704000X-0.704000X0.704000X0*%
%ADD13C,3.000000*%
%ADD14C,1.600000*%
%ADD15C,2.200000*%
%ADD16C,1.850000*%
%ADD17FreePoly0,0.000000*%
%ADD18RoundRect,0.200000X-0.600000X-0.600000X0.600000X-0.600000X0.600000X0.600000X-0.600000X0.600000X0*%
%ADD19RoundRect,0.800000X-0.800000X-0.000010X0.800000X-0.000010X0.800000X0.000010X-0.800000X0.000010X0*%
%ADD20FreePoly1,0.000000*%
%ADD21FreePoly2,0.000000*%
%ADD22FreePoly3,0.000000*%
%ADD23O,1.600000X1.600000*%
%ADD24R,1.700000X1.700000*%
%ADD25O,1.700000X1.700000*%
G04 APERTURE END LIST*
D10*
%TO.C,U1*%
X149000000Y-83550000D03*
X149000000Y-63230000D03*
D11*
X128680000Y-83550000D03*
X128680000Y-81010000D03*
X128680000Y-78470000D03*
X128680000Y-75930000D03*
X128680000Y-73390000D03*
X128680000Y-70850000D03*
X128680000Y-68310000D03*
X128680000Y-65770000D03*
D12*
X128680000Y-63230000D03*
%TD*%
%TO.C,U2*%
X128680000Y-91840000D03*
D11*
X128680000Y-94380000D03*
X128680000Y-96920000D03*
X128680000Y-99460000D03*
X128680000Y-102000000D03*
X128680000Y-104540000D03*
X128680000Y-107080000D03*
X128680000Y-109620000D03*
X128680000Y-112160000D03*
D10*
X149000000Y-91840000D03*
X149000000Y-112160000D03*
%TD*%
D13*
%TO.C,TP2*%
X120500000Y-62500000D03*
%TD*%
D14*
%TO.C,C1*%
X118500000Y-94500000D03*
X123500000Y-94500000D03*
%TD*%
D15*
%TO.C,A1*%
X102275000Y-64537500D03*
D16*
X102575000Y-67567500D03*
X107425000Y-67567500D03*
D15*
X107725000Y-64537500D03*
D17*
X95310000Y-64407500D03*
D18*
X96110000Y-64407500D03*
D19*
X95310000Y-66947500D03*
D14*
X96110000Y-66947500D03*
D20*
X95310000Y-69487500D03*
D21*
X96110000Y-69487500D03*
D19*
X95310000Y-72027500D03*
D14*
X96110000Y-72027500D03*
D19*
X95310000Y-74567500D03*
D14*
X96110000Y-74567500D03*
D19*
X95310000Y-77107500D03*
D14*
X96110000Y-77107500D03*
D19*
X95310000Y-79647500D03*
D14*
X96110000Y-79647500D03*
D20*
X95310000Y-82187500D03*
D21*
X96110000Y-82187500D03*
D19*
X95310000Y-84727500D03*
D14*
X96110000Y-84727500D03*
D19*
X95310000Y-87267500D03*
D14*
X96110000Y-87267500D03*
D19*
X95310000Y-89807500D03*
D14*
X96110000Y-89807500D03*
D19*
X95310000Y-92347500D03*
D14*
X96110000Y-92347500D03*
D20*
X95310000Y-94887500D03*
D21*
X96110000Y-94887500D03*
D19*
X95310000Y-97427500D03*
D14*
X96110000Y-97427500D03*
D19*
X95310000Y-99967500D03*
D14*
X96110000Y-99967500D03*
D19*
X95310000Y-102507500D03*
D14*
X96110000Y-102507500D03*
D19*
X95310000Y-105047500D03*
D14*
X96110000Y-105047500D03*
D20*
X95310000Y-107587500D03*
D21*
X96110000Y-107587500D03*
D19*
X95310000Y-110127500D03*
D14*
X96110000Y-110127500D03*
D19*
X95310000Y-112667500D03*
D14*
X96110000Y-112667500D03*
X113890000Y-112667500D03*
D19*
X114690000Y-112667500D03*
D14*
X113890000Y-110127500D03*
D19*
X114690000Y-110127500D03*
D22*
X113890000Y-107587500D03*
D17*
X114690000Y-107587500D03*
D14*
X113890000Y-105047500D03*
D19*
X114690000Y-105047500D03*
D14*
X113890000Y-102507500D03*
D19*
X114690000Y-102507500D03*
D14*
X113890000Y-99967500D03*
D19*
X114690000Y-99967500D03*
D14*
X113890000Y-97427500D03*
D19*
X114690000Y-97427500D03*
D22*
X113890000Y-94887500D03*
D17*
X114690000Y-94887500D03*
D14*
X113890000Y-92347500D03*
D19*
X114690000Y-92347500D03*
D14*
X113890000Y-89807500D03*
D19*
X114690000Y-89807500D03*
D14*
X113890000Y-87267500D03*
D19*
X114690000Y-87267500D03*
D14*
X113890000Y-84727500D03*
D19*
X114690000Y-84727500D03*
D22*
X113890000Y-82187500D03*
D17*
X114690000Y-82187500D03*
D14*
X113890000Y-79647500D03*
D19*
X114690000Y-79647500D03*
D14*
X113890000Y-77107500D03*
D19*
X114690000Y-77107500D03*
D14*
X113890000Y-74567500D03*
D19*
X114690000Y-74567500D03*
D14*
X113890000Y-72027500D03*
D19*
X114690000Y-72027500D03*
D22*
X113890000Y-69487500D03*
D17*
X114690000Y-69487500D03*
D14*
X113890000Y-66947500D03*
D19*
X114690000Y-66947500D03*
D14*
X113890000Y-64407500D03*
D19*
X114690000Y-64407500D03*
%TD*%
D13*
%TO.C,TP1*%
X121000000Y-110500000D03*
%TD*%
D14*
%TO.C,R2*%
X118500000Y-97500000D03*
D23*
X118500000Y-105120000D03*
%TD*%
D24*
%TO.C,J1*%
X123500000Y-98880000D03*
D25*
X123500000Y-101420000D03*
X123500000Y-103960000D03*
X123500000Y-106500000D03*
%TD*%
D14*
%TO.C,R1*%
X118500000Y-83880000D03*
D23*
X118500000Y-91500000D03*
%TD*%
M02*
