M48
; DRILL file {KiCad 9.0.0} date 2026-03-23T09:41:57+0000
; FORMAT={-:-/ absolute / metric / decimal}
; #@! TF.CreationDate,2026-03-23T09:41:57+00:00
; #@! TF.GenerationSoftware,Kicad,Pcbnew,9.0.0
; #@! TF.FileFunction,Plated,1,2,PTH
FMAT,2
METRIC
; #@! TA.AperFunction,Plated,PTH,ComponentDrill
T1C0.800
; #@! TA.AperFunction,Plated,PTH,ComponentDrill
T2C0.900
; #@! TA.AperFunction,Plated,PTH,ComponentDrill
T3C1.000
; #@! TA.AperFunction,Plated,PTH,ComponentDrill
T4C1.500
; #@! TA.AperFunction,Plated,PTH,ComponentDrill
T5C2.000
%
G90
G05
T1
X118.5Y-83.88
X118.5Y-91.5
X118.5Y-94.5
X118.5Y-97.5
X118.5Y-105.12
X123.5Y-94.5
T2
X128.68Y-63.23
X128.68Y-65.77
X128.68Y-68.31
X128.68Y-70.85
X128.68Y-73.39
X128.68Y-75.93
X128.68Y-78.47
X128.68Y-81.01
X128.68Y-83.55
X128.68Y-91.84
X128.68Y-94.38
X128.68Y-96.92
X128.68Y-99.46
X128.68Y-102.0
X128.68Y-104.54
X128.68Y-107.08
X128.68Y-109.62
X128.68Y-112.16
T3
X96.11Y-64.407
X96.11Y-66.947
X96.11Y-69.487
X96.11Y-72.028
X96.11Y-74.567
X96.11Y-77.108
X96.11Y-79.647
X96.11Y-82.188
X96.11Y-84.727
X96.11Y-87.267
X96.11Y-89.807
X96.11Y-92.347
X96.11Y-94.887
X96.11Y-97.427
X96.11Y-99.968
X96.11Y-102.507
X96.11Y-105.047
X96.11Y-107.587
X96.11Y-110.127
X96.11Y-112.667
X113.89Y-64.407
X113.89Y-66.947
X113.89Y-69.487
X113.89Y-72.028
X113.89Y-74.567
X113.89Y-77.108
X113.89Y-79.647
X113.89Y-82.188
X113.89Y-84.727
X113.89Y-87.267
X113.89Y-89.807
X113.89Y-92.347
X113.89Y-94.887
X113.89Y-97.427
X113.89Y-99.968
X113.89Y-102.507
X113.89Y-105.047
X113.89Y-107.587
X113.89Y-110.127
X113.89Y-112.667
X123.5Y-98.88
X123.5Y-101.42
X123.5Y-103.96
X123.5Y-106.5
T4
X120.5Y-62.5
X121.0Y-110.5
T5
X149.0Y-63.23
X149.0Y-83.55
X149.0Y-91.84
X149.0Y-112.16
M30
